<svg width="60" height="60" viewBox="0 0 60 60" fill="none" xmlns="http://www.w3.org/2000/svg">
<circle cx="30" cy="30" r="30" fill="white"/>
<path d="M45.9149 41.6928C45.9149 41.6928 44.8135 41.5305 44.342 41.5228C43.8372 41.4912 43.3323 41.5813 42.8696 41.7856C42.4329 42.0097 42.1199 42.1025 42.1353 42.2339C42.1624 42.4387 43.5072 42.4735 44.1719 42.4271C44.6394 42.4027 45.1018 42.3183 45.5477 42.1759C45.6682 42.126 45.7845 42.0665 45.8956 41.9981C45.9922 41.9401 46.1661 41.7431 45.9149 41.6928Z" fill="#FBC241"/>
<path d="M46.0814 41.8865C46.0814 41.8865 45.9616 42.2729 45.9307 42.3657C45.8998 42.4584 45.6873 43.0922 45.5906 43.3202C45.3991 43.8321 45.2581 44.3615 45.1694 44.9008C45.1346 45.3259 45.2776 45.9134 45.3704 45.9327C45.4631 45.952 45.7568 45.639 45.9771 45.2602C46.2344 44.7663 46.3558 44.2128 46.3288 43.6564C46.2979 43.0149 46.2244 42.1106 46.1935 41.9792C46.1626 41.8478 46.1046 41.813 46.0814 41.8865Z" fill="#FBC241"/>
<path d="M43.5801 44.3552C42.6832 44.2395 41.7792 44.1879 40.8749 44.2006C39.5996 44.2431 39.0508 44.4364 39.0354 44.5446C39.0199 44.6528 39.9088 44.989 40.902 45.0006C41.6707 44.9941 42.4361 44.8969 43.1821 44.7107C43.3946 44.6451 43.9627 44.4016 43.5801 44.3552Z" fill="#FBC241"/>
<path d="M43.7065 44.6456C43.2161 45.0032 42.7867 45.4378 42.4351 45.9325C42.0676 46.5227 41.8647 47.2006 41.8477 47.8957C41.8708 48.1121 41.952 48.2551 42.1568 48.1044C42.7002 47.6094 43.1459 47.0169 43.4708 46.3576C43.7335 45.8516 43.8999 45.3012 43.9616 44.7345C43.9577 44.5992 43.8456 44.576 43.7065 44.6456Z" fill="#FBC241"/>
<path d="M39.9402 46.922C39.2804 46.6469 38.5755 46.4963 37.861 46.4776C36.5548 46.4157 35.9287 46.5471 35.9287 46.6978C35.9287 46.8486 36.1297 46.9877 36.8214 47.2234C37.5467 47.4338 38.3094 47.4813 39.0552 47.3625C39.3288 47.3383 39.5979 47.2772 39.8551 47.1809C39.9827 47.1307 40.1141 47.0186 39.9402 46.922Z" fill="#FBC241"/>
<path d="M40.0127 47.1537C39.5538 47.3854 39.1086 47.6435 38.6794 47.9266C38.277 48.1987 37.9531 48.5719 37.7403 49.0087C37.663 49.1942 37.5278 49.7352 37.6437 49.8086C37.7597 49.8821 38.1654 49.5536 38.3084 49.3913C38.8345 48.9047 39.3229 48.3789 39.7692 47.8184C40.2407 47.1459 40.2446 47.0609 40.0127 47.1537Z" fill="#FBC241"/>
<path d="M34.9063 48.4832C34.2861 48.1199 33.6074 47.8675 32.9006 47.7373C31.9499 47.6214 31.1615 47.5557 31.1383 47.6484C31.1151 47.7412 31.2427 48.0581 31.7837 48.3827C32.3247 48.7073 33.3836 48.7692 34.0715 48.7692C34.7594 48.7692 35.1343 48.6223 34.9063 48.4832Z" fill="#FBC241"/>
<path d="M35.5388 48.6526C35.0228 48.6903 34.5288 48.8769 34.1167 49.1898C33.6494 49.5453 33.2287 49.9581 32.8645 50.4187C32.6829 50.6699 32.5245 50.9598 32.6133 51.0718C32.7022 51.1839 33.1969 51.0023 33.7727 50.7549C34.4345 50.4315 34.9996 49.9397 35.4113 49.3289C35.7978 48.7376 35.8171 48.6256 35.5388 48.6526Z" fill="#FBC241"/>
<path d="M14.9866 17.7327C14.9866 17.7327 16.088 17.895 16.5595 17.9066C17.0606 17.9328 17.5608 17.8415 18.0203 17.6399C18.457 17.4197 18.77 17.3269 18.7546 17.1955C18.7275 16.9868 17.3788 16.9559 16.7179 16.9984C16.2505 17.0228 15.7881 17.1072 15.3421 17.2496C15.221 17.2997 15.1046 17.3605 14.9943 17.4313C14.9286 17.5047 14.7354 17.6863 14.9866 17.7327Z" fill="#FBC241"/>
<path d="M14.8193 17.5386C14.8193 17.5386 14.9391 17.1715 14.97 17.0594C15.0009 16.9473 15.2134 16.3367 15.3101 16.1049C15.5015 15.593 15.6426 15.0636 15.7313 14.5243C15.7718 14.1678 15.7017 13.8076 15.5303 13.4924C15.4414 13.4692 15.1439 13.7861 14.9236 14.1648C14.6668 14.659 14.5455 15.2124 14.5719 15.7686C14.6028 16.414 14.6763 17.3145 14.7072 17.4459C14.7381 17.5773 14.7961 17.6159 14.8193 17.5386Z" fill="#FBC241"/>
<path d="M17.3207 15.0736C18.2176 15.1891 19.1217 15.2395 20.0259 15.2243C21.3012 15.1856 21.8499 14.9885 21.8654 14.8803C21.8809 14.7721 20.992 14.4359 19.9988 14.4243C19.2298 14.4314 18.4644 14.53 17.7187 14.718C17.5062 14.776 16.9381 15.0233 17.3207 15.0736Z" fill="#FBC241"/>
<path d="M17.1935 14.765C17.6851 14.4087 18.1146 13.9739 18.465 13.4781C18.8332 12.8896 19.0361 12.2128 19.0524 11.5188C19.0292 11.2985 18.9481 11.1594 18.7432 11.3062C18.1999 11.8012 17.7542 12.3937 17.4293 13.053C17.1645 13.5582 16.998 14.1089 16.9385 14.6761C16.9423 14.8269 17.0544 14.8539 17.1935 14.765Z" fill="#FBC241"/>
<path d="M20.9624 12.5031C21.6228 12.7813 22.3291 12.9346 23.0454 12.9552C24.3517 13.0209 24.9777 12.8857 24.9777 12.735C24.9777 12.5842 24.7729 12.449 24.0811 12.2094C23.3569 12.0009 22.5958 11.9534 21.8513 12.0702C21.5784 12.099 21.3099 12.16 21.0513 12.2519C20.9199 12.2944 20.7885 12.4065 20.9624 12.5031Z" fill="#FBC241"/>
<path d="M20.887 12.2759C21.3465 12.045 21.7917 11.7869 22.2203 11.5029C22.6235 11.2327 22.9465 10.8589 23.1556 10.4209C23.2367 10.2354 23.372 9.69432 23.256 9.62089C23.1401 9.54747 22.7343 9.87596 22.5875 10.0383C22.057 10.5294 21.5636 11.059 21.1112 11.6227C20.659 12.2836 20.6552 12.3647 20.887 12.2759Z" fill="#FBC241"/>
<path d="M25.9972 10.942C26.6153 11.3154 27.2942 11.577 28.003 11.7149C28.9536 11.827 29.742 11.8966 29.7652 11.8C29.7884 11.7034 29.6609 11.3903 29.1198 11.0696C28.5788 10.7488 27.5199 10.6831 26.8281 10.6831C26.1364 10.6831 25.7692 10.8068 25.9972 10.942Z" fill="#FBC241"/>
<path d="M25.361 10.7761C25.8755 10.74 26.3689 10.5577 26.7832 10.2505C27.2514 9.8961 27.6722 9.48308 28.0353 9.02156C28.2169 8.77036 28.3715 8.48438 28.2865 8.36844C28.2015 8.2525 27.703 8.44187 27.1271 8.6892C26.4654 9.00693 25.8979 9.4918 25.4808 10.0959C25.0866 10.6872 25.0789 10.8031 25.361 10.7761Z" fill="#FBC241"/>
<path d="M30.285 49.8502H29.999V49.742C30.6251 49.742 31.2357 49.6995 31.8192 49.6377C31.8463 49.6377 31.8733 49.6377 31.8772 49.6841C31.8792 49.6956 31.8792 49.7073 31.8772 49.7189C31.8777 49.726 31.8769 49.7331 31.8746 49.7399C31.8724 49.7466 31.8688 49.7529 31.8641 49.7583C31.8595 49.7637 31.8538 49.7681 31.8474 49.7713C31.841 49.7744 31.8341 49.7763 31.827 49.7768C31.2705 49.8309 30.7719 49.8502 30.285 49.8502Z" fill="#86A945"/>
<path d="M29.7134 49.8505C26.734 49.8511 23.793 49.1777 21.1107 47.8808C18.4283 46.584 16.074 44.6972 14.224 42.3617C12.374 40.0262 11.0762 37.3026 10.4277 34.3946C9.77923 31.4866 9.79691 28.4695 10.4794 25.5693L10.5799 25.5925C10.3253 26.865 10.1959 28.1594 10.1934 29.4571C10.1897 33.4661 11.4203 37.3791 13.7179 40.6644V40.6644C15.4658 43.409 17.8693 45.6756 20.7116 47.2596C23.5539 48.8437 26.7458 49.6956 29.9994 49.7385V49.8467H29.7134V49.8505ZM10.1123 28.6301C10.0775 29.1209 10.0582 29.6078 10.0582 30.0909C10.0631 34.7493 11.7202 39.255 14.7347 42.8065C17.7492 46.3581 21.9256 48.7253 26.5213 49.4873C23.8913 48.9797 21.3924 47.9414 19.1771 46.4357C16.9618 44.9301 15.0767 42.9887 13.6368 40.7301C11.3263 37.4226 10.0903 33.4839 10.0968 29.4494C10.0968 29.1866 10.1007 28.9045 10.1123 28.6301Z" fill="#86A945"/>
<path d="M46.5279 41.3054H46.5008C46.4958 41.3007 46.4918 41.295 46.489 41.2887C46.4863 41.2824 46.4849 41.2756 46.4849 41.2687C46.4849 41.2618 46.4863 41.255 46.489 41.2487C46.4918 41.2424 46.4958 41.2367 46.5008 41.232C48.5098 38.3109 49.6912 34.9008 49.9198 31.363C50.1484 27.8252 49.4157 24.2914 47.7993 21.1361C49.01 23.7414 49.6365 26.5799 49.635 29.4527C49.6331 30.975 49.4567 32.4921 49.1094 33.9743C48.6127 36.4755 47.632 38.8556 46.2226 40.9808C46.2122 40.9893 46.1992 40.9939 46.1858 40.9939C46.1725 40.9939 46.1595 40.9893 46.1491 40.9808C46.1399 40.9708 46.1348 40.9577 46.1348 40.9441C46.1348 40.9305 46.1399 40.9173 46.1491 40.9073C47.5501 38.7977 48.5255 36.4347 49.0205 33.9511C49.624 31.3948 49.7075 28.7434 49.266 26.1542C48.8245 23.565 47.8671 21.091 46.4506 18.8792L46.5395 18.8174C48.8329 22.1134 50.0677 26.0299 50.0794 30.0453C50.0911 34.0607 48.8792 37.9844 46.6051 41.2938C46.6009 41.2998 46.5956 41.3048 46.5893 41.3087C46.5831 41.3125 46.5762 41.315 46.569 41.3161C46.5618 41.3172 46.5544 41.3168 46.5473 41.315C46.5403 41.3131 46.5336 41.3099 46.5279 41.3054V41.3054Z" fill="#86A945"/>
<path d="M46.1632 41.0007H46.1322C46.123 40.9908 46.1179 40.9776 46.1179 40.964C46.1179 40.9504 46.123 40.9373 46.1322 40.9273C46.952 39.692 47.6276 38.3668 48.1457 36.9777C47.5872 38.3407 46.8782 39.6369 46.0318 40.8423C46.0218 40.8515 46.0087 40.8567 45.995 40.8567C45.9814 40.8567 45.9683 40.8515 45.9583 40.8423C45.9533 40.8376 45.9493 40.8319 45.9465 40.8256C45.9438 40.8193 45.9424 40.8125 45.9424 40.8056C45.9424 40.7987 45.9438 40.7919 45.9465 40.7856C45.9493 40.7793 45.9533 40.7736 45.9583 40.7689C47.4062 38.7166 48.4454 36.4047 49.0191 33.9595L49.1196 33.9788C48.6236 36.4815 47.6429 38.863 46.2327 40.9892C46.2244 40.9991 46.2128 41.0057 46.2001 41.0078C46.1873 41.01 46.1742 41.0075 46.1632 41.0007V41.0007Z" fill="#86A945"/>
<path d="M30.0023 49.8474C26.7331 49.8026 23.5262 48.9461 20.6701 47.3548C17.8139 45.7635 15.398 43.4873 13.6396 40.7308L13.7285 40.6729C15.5398 43.2732 17.9522 45.3977 20.7606 46.8658C23.569 48.3339 26.6903 49.1022 29.8593 49.1054C30.3965 49.1054 30.9569 49.0783 31.5675 49.0242C31.5816 49.0241 31.5953 49.0291 31.6059 49.0384C31.6166 49.0476 31.6235 49.0605 31.6254 49.0745C31.626 49.0811 31.6252 49.0877 31.6231 49.094C31.6211 49.1003 31.6178 49.1061 31.6135 49.1112C31.6092 49.1162 31.6039 49.1203 31.598 49.1233C31.5921 49.1263 31.5857 49.1281 31.5791 49.1286C30.9646 49.1827 30.4197 49.2097 29.8593 49.2097C27.1237 49.2053 24.4187 48.6332 21.9155 47.5296C19.4123 46.426 17.1654 44.815 15.3169 42.7984C17.1267 44.9434 19.3763 46.6745 21.9132 47.8746C24.4502 49.0748 27.2154 49.7159 30.0216 49.7546C30.6477 49.7546 31.2583 49.7121 31.8418 49.6503C31.8689 49.6503 31.8959 49.6503 31.8998 49.6967C31.8999 49.7108 31.8949 49.7245 31.8857 49.7351C31.8764 49.7458 31.8636 49.7527 31.8496 49.7546C31.2467 49.801 30.6322 49.8358 30.0023 49.8474Z" fill="#86A945"/>
<path d="M46.4176 18.8689C44.6063 16.2686 42.1939 14.1441 39.3855 12.676C36.5771 11.2079 33.4558 10.4396 30.2868 10.4364H29.9003C29.7728 10.4364 29.6491 10.4364 29.5139 10.4364H29.3632C29.3562 10.4364 29.3494 10.435 29.343 10.4322C29.3366 10.4295 29.3309 10.4254 29.3262 10.4203C29.3215 10.4153 29.3179 10.4093 29.3156 10.4027C29.3133 10.3962 29.3124 10.3892 29.3129 10.3823C29.3137 10.3688 29.3191 10.3561 29.3283 10.3462C29.3375 10.3363 29.3498 10.33 29.3632 10.3282H30.2945C33.0381 10.33 35.7513 10.9026 38.2615 12.0097C40.7718 13.1168 43.0242 14.7341 44.8756 16.7589C43.0339 14.573 40.7356 12.8174 38.1423 11.6156C35.549 10.4137 32.7238 9.7949 29.8656 9.8026C29.6221 9.8026 29.3709 9.8026 29.1351 9.8026H29.1042C29.0928 9.79946 29.0827 9.79266 29.0755 9.78323C29.0683 9.77381 29.0645 9.76228 29.0645 9.75043C29.0645 9.73858 29.0683 9.72705 29.0755 9.71763C29.0827 9.7082 29.0928 9.7014 29.1042 9.69826H29.1351C29.3747 9.69826 29.6221 9.69826 29.8694 9.69826C33.1879 9.69399 36.4537 10.5277 39.3641 12.122C42.2745 13.7164 44.7352 16.0198 46.518 18.8187L46.4176 18.8689Z" fill="#86A945"/>
<path d="M10.5809 25.5931L10.4805 25.5738C11.0379 22.7512 12.2124 20.0868 13.9199 17.7712C13.9299 17.762 13.9431 17.7568 13.9567 17.7568C13.9703 17.7568 13.9834 17.762 13.9934 17.7712C14.0026 17.7812 14.0077 17.7943 14.0077 17.8079C14.0077 17.8215 14.0026 17.8346 13.9934 17.8446C12.9319 19.2981 12.0762 20.8912 11.4505 22.5787C12.1346 20.9158 13.0449 19.3553 14.1557 17.9412C14.1653 17.9343 14.177 17.9307 14.1888 17.931C14.2007 17.9314 14.2121 17.9356 14.2214 17.9431C14.2306 17.9505 14.2371 17.9608 14.2399 17.9724C14.2427 17.9839 14.2416 17.9961 14.2368 18.0069C12.4808 20.2395 11.2331 22.8285 10.5809 25.5931V25.5931Z" fill="#86A945"/>
<path d="M13.6394 40.7343C12.1202 38.5497 11.0575 36.0809 10.515 33.4758C9.97246 30.8708 9.96127 28.183 10.4821 25.5735C11.1283 22.7958 12.3748 20.1933 14.1341 17.9487C14.1437 17.9418 14.1554 17.9382 14.1673 17.9385C14.1791 17.9388 14.1906 17.9431 14.1998 17.9505C14.209 17.958 14.2155 17.9683 14.2183 17.9798C14.2211 17.9914 14.2201 18.0035 14.2153 18.0144C12.4685 20.2468 11.2288 22.8329 10.5826 25.5928C10.328 26.8653 10.1985 28.1597 10.1961 29.4574C10.1917 32.5718 10.9324 35.6419 12.3564 38.4117C10.8533 35.1732 10.2562 31.5879 10.6284 28.037C11.0006 24.4862 12.3284 21.1026 14.4703 18.2463C14.4803 18.237 14.4934 18.2319 14.507 18.2319C14.5207 18.2319 14.5338 18.237 14.5438 18.2463C14.5488 18.251 14.5528 18.2567 14.5555 18.263C14.5583 18.2693 14.5597 18.2761 14.5597 18.283C14.5597 18.2899 14.5583 18.2967 14.5555 18.303C14.5528 18.3093 14.5488 18.315 14.5438 18.3197C12.1446 21.5209 10.7795 25.3781 10.631 29.3758C10.4826 33.3736 11.5577 37.3214 13.7129 40.6918L13.6394 40.7343Z" fill="#86A945"/>
<path d="M49.0901 33.9718L48.9857 33.9486C49.5521 31.1208 49.4891 28.2031 48.8011 25.4024C48.1131 22.6018 46.8169 19.987 45.0047 17.7435C43.1925 15.5001 40.9087 13.6832 38.3153 12.4217C35.7219 11.1602 32.8826 10.485 29.999 10.4442V10.3398H30.285C33.4729 10.3413 36.6134 11.1126 39.4393 12.5882C42.2652 14.0637 44.693 16.1998 46.5163 18.8149C48.5504 21.9917 49.6301 25.6856 49.6272 29.4579C49.6209 30.9781 49.4407 32.4926 49.0901 33.9718ZM33.6588 10.7302C38.1219 11.6412 42.1335 14.0657 45.015 17.5937C47.8965 21.1217 49.4712 25.5365 49.4727 30.0917C49.4727 30.3623 49.4727 30.6328 49.4727 30.9033C49.5074 30.4202 49.5268 29.9333 49.5268 29.4502C49.5307 25.6998 48.4577 22.0272 46.4351 18.869C44.9475 16.7368 43.0528 14.9199 40.8601 13.5231C38.6674 12.1263 36.2199 11.1771 33.6588 10.7302V10.7302Z" fill="#86A945"/>
<path d="M29.3625 10.4596C29.351 10.46 29.3397 10.4563 29.3305 10.4492C29.3214 10.4422 29.3149 10.4322 29.3123 10.421C29.31 10.4121 29.31 10.4028 29.3123 10.3939C29.313 10.3805 29.3185 10.3677 29.3277 10.3579C29.3368 10.348 29.3491 10.3416 29.3625 10.3398H30.0002V10.4442H29.3664L29.3625 10.4596Z" fill="#86A945"/>
<path d="M20.1768 22.0212L20.1304 22.2956C19.8423 23.9251 19.4328 25.5308 18.9053 27.0993C18.4363 28.4202 17.8301 29.6882 17.0967 30.8827C14.6208 34.9405 11.9194 36.9682 8.99265 36.9656C8.14556 36.965 7.30628 36.8037 6.51931 36.4902C5.77029 36.2137 5.08906 35.7802 4.52132 35.2188C4.12958 34.823 3.82239 34.3517 3.61844 33.8335C3.41448 33.3153 3.31802 32.761 3.3349 32.2044C3.32641 31.6315 3.4483 31.0642 3.69133 30.5453C3.93436 30.0264 4.29218 29.5696 4.73774 29.2094C5.71123 28.3971 6.94855 27.9695 8.21587 28.0075C10.4341 28.0075 12.8444 28.9092 15.4465 30.7127L14.5692 31.3001C13.4646 30.5081 12.2583 29.8686 10.9829 29.3987C9.87809 28.9383 8.70062 28.6766 7.50478 28.6258C6.52679 28.5827 5.56613 28.8942 4.79957 29.5031C4.46327 29.7672 4.19267 30.1057 4.00896 30.4918C3.82526 30.878 3.73343 31.3015 3.74068 31.7291C3.74738 32.3358 3.89559 32.9326 4.17351 33.472C4.46497 34.0569 4.87882 34.5722 5.38699 34.9831C5.90711 35.3856 6.50031 35.6835 7.13378 35.8603C7.84153 36.0836 8.57902 36.1982 9.32114 36.2004C11.7301 36.2004 13.7912 35.023 15.5045 32.6682C16.2251 31.6513 16.8377 30.562 17.3324 29.418C17.8444 28.2977 18.2332 27.125 18.4918 25.9206L18.8744 24.1622L19.0869 23.0879C19.0869 23.0183 19.1217 22.914 19.141 22.7787C18.9029 22.8123 18.6628 22.8304 18.4222 22.8328H17.688C17.4526 22.8313 17.2183 22.8638 16.9923 22.9294C16.6594 23.018 16.3656 23.2152 16.1576 23.4898C15.9486 23.7549 15.8367 24.0836 15.8407 24.4211C15.8427 24.7378 15.928 25.0483 16.088 25.3216C16.3485 25.7144 16.6575 26.0728 17.0078 26.3882C17.1855 26.5238 17.3344 26.6935 17.4458 26.8872C17.5573 27.0809 17.6291 27.2949 17.657 27.5167C17.6449 28.0084 17.471 28.4824 17.1624 28.8654C17.0594 29.0458 16.9155 29.1995 16.7424 29.3143C16.5692 29.4291 16.3716 29.5017 16.1653 29.5263C16.0411 29.5302 15.9176 29.5061 15.8039 29.456C15.6902 29.4058 15.5892 29.3308 15.5083 29.2364C15.3288 29.0204 15.2389 28.7438 15.2571 28.4635C15.2532 28.403 15.2532 28.3423 15.2571 28.2819C15.5972 28.7649 15.9373 29.0084 16.2735 29.0084C16.7682 29.0084 17.0194 28.7495 17.0194 28.2355C17.0194 27.9263 16.7605 27.536 16.2465 27.0761C15.9556 26.8272 15.7218 26.5185 15.5611 26.171C15.4004 25.8235 15.3165 25.4455 15.3151 25.0627C15.3222 24.2474 15.6511 23.468 16.2301 22.894C16.8092 22.32 17.5915 21.998 18.4068 21.998H19.1333H19.8058L20.1768 22.0212Z" fill="#86A945"/>
<path d="M32.0589 22.0215L31.3478 23.9963C32.0791 24.1595 32.7491 24.5266 33.2801 25.0552C33.7005 25.5494 33.9173 26.1849 33.8869 26.8329C33.8869 28.2371 33.2775 29.5253 32.0589 30.6975C31.2813 31.4376 30.3608 32.011 29.3537 32.3825C28.2874 32.7824 27.1574 32.9854 26.0186 32.9815C24.2563 32.9815 22.8586 32.5822 21.8255 31.7835C21.3268 31.41 20.9258 30.9216 20.6566 30.3597C20.3875 29.7978 20.2581 29.1792 20.2797 28.5566C20.2662 27.5493 20.5454 26.5599 21.0835 25.7084C21.6892 24.793 22.5055 24.0363 23.4641 23.5017C25.4388 22.3864 27.6777 21.8244 29.945 21.8747C30.6524 21.8674 31.3593 21.9165 32.0589 22.0215V22.0215ZM31.2087 24.3403C30.6914 25.7169 29.8098 26.9272 28.6581 27.8416C27.6086 28.6627 26.3114 29.1028 24.979 29.0899H24.2988C24.169 29.0894 24.0395 29.1023 23.9124 29.1285C23.7797 29.1682 23.6504 29.2186 23.5259 29.2792C23.5684 29.1942 23.5955 29.144 23.6109 29.1208L23.8196 28.6957C23.8994 28.5186 24.0313 28.3701 24.1977 28.27C24.3642 28.1699 24.5572 28.1229 24.751 28.1353H25.7519C26.1398 28.1355 26.5272 28.1084 26.9113 28.0542C27.7654 27.9562 28.5617 27.5737 29.1721 26.9682C29.8877 26.1916 30.4258 25.2685 30.7488 24.263C30.2878 24.1529 29.816 24.0946 29.3421 24.0891C28.345 24.0531 27.3612 24.3257 26.5248 24.8697C25.7497 25.398 25.1988 26.1955 24.979 27.1073C24.861 26.9269 24.7979 26.7162 24.7974 26.5006C24.7974 25.7277 25.2392 25.0746 26.1229 24.5412C27.1401 23.9904 28.2867 23.7235 29.4426 23.7683C29.8705 23.7747 30.2977 23.8069 30.7218 23.8649L30.8879 23.8881L31.2512 22.7288C30.4144 22.6027 29.5699 22.5343 28.7238 22.5239C26.2401 22.5239 24.4019 23.0663 23.209 24.1509C22.6255 24.6976 22.1597 25.3577 21.8401 26.0906C21.5205 26.8235 21.3538 27.614 21.3501 28.4136C21.3207 28.9762 21.4207 29.538 21.6424 30.0559C21.8642 30.5738 22.2018 31.034 22.6293 31.4009C23.6083 32.215 24.9146 32.6234 26.548 32.626C28.1921 32.6749 29.7928 32.0944 31.0232 31.0028C31.6008 30.5049 32.0619 29.8861 32.3738 29.1902C32.6856 28.4944 32.8407 27.7384 32.828 26.9759C32.8429 26.3769 32.6874 25.7859 32.3797 25.2717C32.2564 25.0474 32.0892 24.8504 31.888 24.6924C31.6868 24.5343 31.4557 24.4185 31.2087 24.3519V24.3403Z" fill="#86A945"/>
<path d="M46.9657 28.1591C46.2417 29.2721 45.6363 30.2911 45.1494 31.216C45.1472 31.2559 45.1472 31.2959 45.1494 31.3358L45.1107 31.7995L45.0721 32.213C45.0687 32.2735 45.0687 32.3342 45.0721 32.3947L44.9368 32.4488C44.6975 32.5322 44.4779 32.6637 44.2914 32.8352C44.1213 33.0329 43.9901 33.2611 43.905 33.5077C43.6737 34.0303 43.5501 34.5941 43.5417 35.1656C43.5232 35.4361 43.588 35.7058 43.7272 35.9385C43.8975 36.1475 44.1284 36.2987 44.388 36.3713L44.0016 37.4766C43.3266 37.219 42.9891 36.6522 42.9891 35.7762C42.9891 35.0625 43.284 34.1093 43.874 32.9164C44.0442 32.5635 44.1602 32.187 44.218 31.7995C44.2934 31.2463 44.327 30.6883 44.3185 30.13V28.3678V28.1939C43.5692 28.3438 42.8901 28.7363 42.3862 29.3107C41.9088 29.867 41.6529 30.5797 41.6674 31.3126C41.6647 31.7064 41.7449 32.0964 41.9026 32.4573C42.0604 32.8181 42.2923 33.1418 42.5833 33.4072C42.502 33.4252 42.4192 33.4355 42.3359 33.4381C42.169 33.4379 42.0049 33.3948 41.8594 33.3129C41.7139 33.2311 41.5918 33.1131 41.505 32.9705C41.2741 32.6177 41.1592 32.2015 41.1766 31.7802C41.17 30.8934 41.4567 30.0294 41.992 29.3223C42.5899 28.5507 43.3821 27.9519 44.2876 27.5871C44.2026 26.6713 43.9676 25.7756 43.5919 24.936C43.2598 24.1928 42.7238 23.559 42.0461 23.1081C41.2846 22.5957 40.3705 22.3599 39.4562 22.4401C38.5419 22.5203 37.6828 22.9116 37.0221 23.5486C36.6535 23.9247 36.365 24.3718 36.1744 24.8627C35.9837 25.3537 35.8948 25.8782 35.913 26.4046C35.9071 27.5225 36.2743 28.6105 36.9564 29.4962C37.5764 30.3797 38.4945 31.0096 39.5418 31.2701V31.4208C38.9778 31.4394 38.4162 31.3377 37.8945 31.1225C37.3727 30.9072 36.9028 30.5834 36.5159 30.1725C36.1174 29.7449 35.8075 29.2428 35.6039 28.6949C35.4003 28.1471 35.307 27.5644 35.3294 26.9804C35.318 26.3144 35.4416 25.6529 35.6926 25.0359C35.9437 24.4189 36.3171 23.8591 36.7903 23.3902C37.2536 22.9158 37.8099 22.5422 38.4244 22.2928C39.0389 22.0434 39.6982 21.9236 40.3611 21.941C40.9883 21.9111 41.6145 22.0191 42.1954 22.2575C42.7763 22.4959 43.2979 22.8588 43.7233 23.3206C44.5452 24.2404 45.036 25.5788 45.1957 27.3359C45.4894 27.3089 45.7522 27.2973 45.9686 27.2973C46.3471 27.304 46.7251 27.3298 47.101 27.3746L47.2478 27.1543C48.5695 25.1859 49.7907 23.7792 50.9114 22.9342C51.9353 22.1213 53.2021 21.675 54.5094 21.6666C55.0642 21.6411 55.6106 21.8091 56.0552 22.1419C56.2488 22.2953 56.4045 22.4911 56.5104 22.7143C56.6163 22.9374 56.6695 23.1819 56.6658 23.4288C56.6486 24.0304 56.4639 24.6153 56.1325 25.1177C55.7471 25.7291 55.2503 26.2626 54.6678 26.6905C53.1307 27.8094 51.266 28.387 49.3656 28.333C48.936 28.3367 48.5065 28.3186 48.0787 28.2789L47.1705 28.1823L46.9657 28.1591ZM46.6179 28.1282H46.4904C46.0498 28.0779 45.7484 28.0547 45.5899 28.0547C45.5204 28.0547 45.4044 28.0625 45.2421 28.0779V28.4992C45.2421 29.1987 45.2151 29.8866 45.1648 30.559C45.2068 30.498 45.2455 30.4348 45.2807 30.3696L45.8991 29.3417L46.5213 28.3021C46.5569 28.2461 46.5892 28.188 46.6179 28.1282V28.1282ZM47.4449 27.3939L47.6691 27.4171C48.4927 27.5126 49.321 27.5629 50.1501 27.5678C52.5049 27.5678 54.2157 26.9585 55.2823 25.7399C55.7292 25.274 55.9856 24.6578 56.0011 24.0124C56.0073 23.7782 55.9593 23.5458 55.8607 23.3332C55.7621 23.1207 55.6158 22.9339 55.433 22.7873C55.0164 22.4579 54.4951 22.2892 53.9645 22.312C51.8003 22.312 49.6271 24.006 47.4449 27.3939V27.3939Z" fill="#86A945"/>
<path d="M19.3662 37.6004C19.3756 37.6186 19.3822 37.6382 19.3855 37.6584C19.3725 37.717 19.3475 37.7723 19.3121 37.8207C19.2598 37.9111 19.187 37.9878 19.0995 38.0448C19.0368 38.0789 18.9659 38.095 18.8947 38.0912C18.8325 38.0972 18.7697 38.0881 18.7119 38.0645C18.654 38.0409 18.6027 38.0037 18.5623 37.956C18.5042 37.8714 18.4708 37.7724 18.4657 37.67L18.1218 37.9096C18.0359 37.9651 17.9438 38.0105 17.8474 38.0448C17.7208 38.0744 17.5909 38.0874 17.4609 38.0835C17.4157 38.0869 17.3703 38.0806 17.3278 38.0649C17.2852 38.0493 17.2465 38.0247 17.2143 37.9928C17.1821 37.961 17.157 37.9226 17.1409 37.8802C17.1248 37.8378 17.118 37.7925 17.1208 37.7473C17.1475 37.5533 17.2404 37.3745 17.3836 37.241C17.5794 37.0281 17.8213 36.8628 18.0909 36.7579L18.4773 36.5879C18.4773 36.5222 18.4773 36.4449 18.4773 36.3676C18.5082 36.1882 18.4839 36.0035 18.4078 35.8382C18.3698 35.7925 18.3218 35.7561 18.2675 35.732C18.2132 35.7079 18.1541 35.6966 18.0947 35.699C17.9496 35.7041 17.8117 35.7634 17.7083 35.8652C17.613 35.9738 17.5524 36.1084 17.5344 36.2517C17.5199 36.3116 17.4965 36.3689 17.4648 36.4217C17.4032 36.4698 17.3298 36.5005 17.2522 36.5106C17.2075 36.51 17.1642 36.4951 17.1286 36.4681C17.1199 36.4636 17.1126 36.457 17.1072 36.4489C17.1018 36.4408 17.0985 36.4314 17.0977 36.4217C17.1266 36.2952 17.1776 36.1749 17.2484 36.0662C17.3517 35.889 17.5013 35.7434 17.6812 35.6449C17.8186 35.563 17.9737 35.5152 18.1334 35.5058C18.2638 35.5008 18.3943 35.5164 18.5198 35.5522C18.6089 35.5869 18.6875 35.6442 18.7478 35.7184C18.81 35.794 18.8513 35.8846 18.8676 35.9811C18.8676 36.0275 18.8676 36.1898 18.8676 36.4642V36.955V37.3028C18.8676 37.3492 18.8676 37.3917 18.8676 37.4226C18.8676 37.4536 18.8676 37.527 18.8676 37.554C18.8648 37.6148 18.8856 37.6744 18.9256 37.7202C18.9434 37.7394 18.9649 37.7548 18.9888 37.7654C19.0127 37.776 19.0386 37.7817 19.0647 37.782C19.1057 37.7809 19.1456 37.7693 19.1808 37.7483C19.216 37.7274 19.2452 37.6977 19.2657 37.6622L19.3005 37.6159L19.3662 37.6004ZM18.4657 37.5115C18.4657 37.2526 18.485 37.0671 18.485 36.9589C18.485 36.8507 18.485 36.8314 18.485 36.7347C18.3301 36.7923 18.1823 36.8675 18.0445 36.9589C17.9009 37.0501 17.7762 37.1682 17.6773 37.3067C17.6185 37.385 17.5848 37.4793 17.5807 37.5772C17.5797 37.6139 17.5864 37.6504 17.6004 37.6844C17.6144 37.7183 17.6353 37.749 17.6619 37.7743C17.6887 37.8011 17.7207 37.8221 17.7559 37.836C17.7911 37.85 17.8288 37.8566 17.8667 37.8555C17.9478 37.8502 18.0268 37.8278 18.0986 37.7898C18.233 37.7141 18.3565 37.6205 18.4657 37.5115V37.5115Z" fill="#86A945"/>
<path d="M21.8852 37.4569V37.654C21.7527 37.8047 21.591 37.927 21.4099 38.0134C21.2356 38.0836 21.0489 38.1178 20.8611 38.1139C20.6403 38.1162 20.4238 38.053 20.2389 37.9322C20.0511 37.8083 19.9034 37.6324 19.8138 37.426C19.717 37.2231 19.6655 37.0015 19.6631 36.7767C19.6639 36.5454 19.7266 36.3186 19.8447 36.1197C19.9603 35.9208 20.1325 35.7607 20.3394 35.6599C20.5728 35.5519 20.8283 35.5003 21.0853 35.5091C21.3138 35.4934 21.5421 35.5444 21.7422 35.656C21.7807 35.6786 21.8126 35.7108 21.8349 35.7494C21.8573 35.788 21.8693 35.8317 21.8698 35.8763C21.8705 35.9064 21.865 35.9363 21.8537 35.9642C21.8424 35.9922 21.8255 36.0175 21.8041 36.0386C21.7821 36.06 21.7561 36.0768 21.7276 36.0881C21.699 36.0994 21.6686 36.1049 21.6379 36.1043C21.5715 36.0969 21.5072 36.0764 21.4488 36.0439C21.3904 36.0114 21.339 35.9675 21.2978 35.9149C21.2322 35.8503 21.1565 35.7967 21.0737 35.7565C21.0099 35.7253 20.9398 35.7094 20.8688 35.7101C20.7806 35.7092 20.6934 35.729 20.6142 35.7679C20.535 35.8069 20.466 35.8638 20.4128 35.9342C20.238 36.1649 20.1479 36.4488 20.1578 36.7381C20.1441 37.0261 20.2362 37.3093 20.4167 37.5342C20.4887 37.6253 20.5802 37.699 20.6846 37.7498C20.789 37.8007 20.9035 37.8274 21.0196 37.8279C21.1661 37.8295 21.3117 37.8033 21.4485 37.7506C21.607 37.6734 21.7539 37.5745 21.8852 37.4569V37.4569Z" fill="#86A945"/>
<path d="M24.5042 37.4569V37.654C24.3723 37.8037 24.2121 37.9258 24.0328 38.0134C23.857 38.0832 23.6692 38.1173 23.4801 38.1139C23.2594 38.1155 23.0431 38.0523 22.8579 37.9322C22.6701 37.8083 22.5224 37.6324 22.4328 37.426C22.332 37.224 22.2766 37.0024 22.2705 36.7767C22.2713 36.5454 22.334 36.3186 22.4521 36.1197C22.5626 35.9235 22.7277 35.7637 22.9275 35.6599C23.161 35.5523 23.4164 35.5007 23.6734 35.5091C23.9019 35.4934 24.1302 35.5444 24.3303 35.656C24.3688 35.6786 24.4007 35.7108 24.423 35.7494C24.4454 35.788 24.4574 35.8317 24.4579 35.8763C24.4586 35.9064 24.4531 35.9363 24.4418 35.9642C24.4305 35.9922 24.4136 36.0175 24.3922 36.0386C24.3705 36.0603 24.3445 36.0774 24.3159 36.0887C24.2873 36.1 24.2567 36.1053 24.226 36.1043C24.1596 36.0969 24.0953 36.0764 24.0369 36.0439C23.9785 36.0114 23.9271 35.9675 23.8859 35.9149C23.8273 35.8496 23.7581 35.7947 23.6811 35.7526C23.6173 35.7214 23.5472 35.7055 23.4763 35.7062C23.388 35.7053 23.3008 35.7251 23.2216 35.7641C23.1424 35.803 23.0734 35.86 23.0202 35.9304C22.8465 36.1614 22.7578 36.4453 22.769 36.7342C22.7594 37.0243 22.8571 37.3078 23.0434 37.5303C23.1158 37.6219 23.208 37.6959 23.3131 37.7468C23.4182 37.7977 23.5334 37.8241 23.6502 37.824C23.7955 37.8259 23.9399 37.7996 24.0753 37.7467C24.2308 37.6701 24.3751 37.5726 24.5042 37.4569V37.4569Z" fill="#86A945"/>
<path d="M27.1099 36.3953H25.8771H25.6414H25.3515C25.3389 36.437 25.3299 36.4796 25.3245 36.5228V36.7354C25.3322 36.8953 25.373 37.0519 25.4443 37.1953C25.5133 37.3653 25.6317 37.5107 25.7843 37.6127C25.9502 37.7117 26.1399 37.7638 26.3331 37.7634C26.4273 37.7606 26.5207 37.7463 26.6114 37.7209C26.716 37.6791 26.8158 37.6259 26.9089 37.5624L27.1292 37.3808V37.5044C27.1292 37.5044 27.1292 37.5354 27.1292 37.5508C27.0305 37.6732 26.9116 37.7778 26.7775 37.86C26.6439 37.9434 26.4996 38.0084 26.3486 38.0532C26.2341 38.0759 26.1174 38.085 26.0008 38.0803C25.8534 38.0787 25.7077 38.0486 25.5718 37.9914C25.3725 37.9055 25.205 37.7596 25.0926 37.574C24.9679 37.3527 24.9064 37.1014 24.9148 36.8475C24.9181 36.73 24.9349 36.6133 24.9651 36.4997C25.0047 36.3413 25.0658 36.1892 25.1467 36.0475C25.2006 35.9441 25.2757 35.8533 25.367 35.7808C25.4637 35.6968 25.5717 35.6265 25.6877 35.5721C25.8357 35.5157 25.9931 35.4882 26.1515 35.491C26.315 35.4844 26.4775 35.5204 26.623 35.5953C26.7824 35.6756 26.9162 35.7987 27.0094 35.9509C27.0806 36.0679 27.1217 36.2006 27.1292 36.3373L27.1099 36.3953ZM25.394 36.2832H25.537C25.6414 36.2832 25.9544 36.2832 26.4722 36.233C26.5235 36.2354 26.5748 36.2275 26.623 36.2098C26.6551 36.1839 26.6759 36.1465 26.6809 36.1055C26.6761 36.0297 26.655 35.9559 26.6191 35.889C26.5767 35.8081 26.5107 35.742 26.4297 35.6997C26.337 35.6549 26.2351 35.6324 26.1322 35.634C26.0226 35.6302 25.9136 35.6524 25.8142 35.6987C25.7148 35.7451 25.6278 35.8143 25.5602 35.9006C25.4616 36.0047 25.4028 36.1402 25.394 36.2832V36.2832Z" fill="#86A945"/>
<path d="M27.739 37.2366C27.7861 37.37 27.8443 37.4993 27.9129 37.6231C27.9833 37.7337 28.0786 37.8263 28.1911 37.8936C28.2983 37.9589 28.4212 37.9936 28.5467 37.9941C28.6772 37.9881 28.8009 37.9345 28.8945 37.8434C28.9327 37.8101 28.9635 37.7692 28.9848 37.7232C29.0061 37.6773 29.0175 37.6273 29.0182 37.5767C29.0207 37.4338 28.9681 37.2954 28.8713 37.1902C28.7164 37.0414 28.5283 36.9314 28.3225 36.8695C28.1174 36.8092 27.9312 36.6975 27.7815 36.5449C27.6922 36.4358 27.643 36.2994 27.6424 36.1584C27.6362 36.0207 27.6756 35.8849 27.7544 35.7719C27.834 35.6615 27.9442 35.5769 28.0713 35.5285C28.1873 35.4778 28.312 35.4503 28.4385 35.4473C28.5681 35.4465 28.6975 35.4581 28.8249 35.4821C28.9289 35.5015 29.0292 35.5367 29.1225 35.5864C29.1225 35.6908 29.1534 35.8454 29.165 36.0463V36.1468H29.0568C28.9997 35.9947 28.9021 35.8611 28.7747 35.7603C28.6676 35.6663 28.5308 35.6129 28.3882 35.6096C28.3335 35.6061 28.2787 35.6143 28.2274 35.6336C28.1761 35.653 28.1295 35.683 28.0907 35.7217C28.0517 35.7597 28.0213 35.8056 28.0013 35.8562C27.9813 35.9068 27.9723 35.961 27.9747 36.0154C27.9756 36.1062 28.0085 36.1937 28.0675 36.2627C28.1929 36.3744 28.3404 36.4587 28.5003 36.5101C28.6754 36.5736 28.8416 36.6594 28.995 36.7651C29.0958 36.8387 29.1757 36.9373 29.2269 37.0511C29.2715 37.1537 29.2965 37.2639 29.3003 37.3757C29.2973 37.5169 29.2469 37.653 29.1573 37.7622C29.0699 37.8814 28.9487 37.9716 28.8095 38.0211C28.686 38.0688 28.5553 38.0949 28.423 38.0984C28.1758 38.1002 27.9309 38.0502 27.7042 37.9516C27.6915 37.9408 27.6817 37.927 27.6756 37.9115C27.6695 37.896 27.6674 37.8792 27.6694 37.8627C27.6694 37.8627 27.6694 37.8124 27.6694 37.7699C27.6385 37.4955 27.623 37.3294 27.623 37.2791C27.623 37.2289 27.623 37.2366 27.623 37.2289C27.6419 37.2222 27.6619 37.2195 27.6818 37.2208C27.7017 37.2221 27.7212 37.2275 27.739 37.2366V37.2366Z" fill="#86A945"/>
<path d="M30.0411 37.2366C30.0882 37.3701 30.1464 37.4993 30.215 37.6231C30.2854 37.7337 30.3807 37.8263 30.4932 37.8936C30.6001 37.9595 30.7232 37.9943 30.8488 37.9941C30.9792 37.9881 31.103 37.9345 31.1966 37.8434C31.2348 37.8102 31.2656 37.7692 31.2869 37.7233C31.3082 37.6773 31.3196 37.6274 31.3202 37.5767C31.3227 37.4338 31.2701 37.2954 31.1734 37.1903C31.0184 37.0414 30.8304 36.9315 30.6246 36.8695C30.4184 36.8092 30.2309 36.6975 30.0797 36.5449C29.9931 36.4346 29.9455 36.2987 29.9444 36.1584C29.9361 36.0205 29.9757 35.884 30.0565 35.772C30.1354 35.6625 30.244 35.5779 30.3696 35.5285C30.4918 35.4762 30.6231 35.4487 30.756 35.4473C30.8857 35.4462 31.0151 35.4579 31.1425 35.4821C31.2476 35.5015 31.3493 35.5367 31.4439 35.5865C31.4648 35.739 31.4777 35.8925 31.4826 36.0463V36.1468H31.3705C31.3146 35.9941 31.2168 35.8601 31.0884 35.7604C30.9822 35.6648 30.8448 35.6112 30.7019 35.6097C30.5906 35.6057 30.4822 35.646 30.4005 35.7217C30.3634 35.7609 30.3344 35.807 30.3151 35.8574C30.2959 35.9078 30.2868 35.9615 30.2884 36.0154C30.2893 36.1062 30.3221 36.1938 30.3811 36.2628C30.5066 36.3745 30.654 36.4587 30.814 36.5101C30.9887 36.5745 31.1548 36.6602 31.3086 36.7652C31.4095 36.8377 31.4884 36.9367 31.5367 37.0511C31.5832 37.1531 31.6082 37.2637 31.6101 37.3758C31.6068 37.5162 31.5579 37.6519 31.471 37.7622C31.3829 37.8824 31.2602 37.9727 31.1193 38.0212C30.996 38.0695 30.8652 38.0957 30.7328 38.0984C30.4856 38.1006 30.2406 38.0505 30.014 37.9516C30.0019 37.9306 29.9978 37.9059 30.0024 37.882C30.0024 37.882 30.0024 37.8318 30.0024 37.7893C29.9715 37.5149 29.956 37.3487 29.956 37.2985C29.9507 37.2821 29.9507 37.2646 29.956 37.2482C29.983 37.2373 30.0122 37.2333 30.0411 37.2366Z" fill="#86A945"/>
<path d="M32.1172 36.7807C32.1205 36.6272 32.1506 36.4755 32.2061 36.3324C32.264 36.1735 32.3548 36.0286 32.4727 35.9073C32.5815 35.7885 32.7129 35.6926 32.8592 35.6252C33.0751 35.5328 33.3084 35.4879 33.5432 35.4938C33.721 35.4882 33.8981 35.5197 34.0631 35.5863C34.228 35.6528 34.3774 35.7529 34.5016 35.8802C34.6271 36.0043 34.726 36.1525 34.7925 36.3159C34.8589 36.4793 34.8914 36.6546 34.8881 36.8309C34.8887 36.9961 34.8546 37.1595 34.7881 37.3106C34.7215 37.4618 34.6239 37.5972 34.5016 37.7082C34.365 37.8372 34.2042 37.9379 34.0284 38.0042C33.8526 38.0705 33.6653 38.1013 33.4775 38.0947C33.2239 38.0958 32.975 38.0262 32.7587 37.8937C32.5787 37.7859 32.4276 37.636 32.3181 37.457C32.1889 37.2549 32.1192 37.0205 32.1172 36.7807ZM33.4775 37.9826C33.6369 37.9812 33.793 37.9372 33.9297 37.855C34.0834 37.7585 34.2035 37.6167 34.2736 37.4493C34.3653 37.2481 34.4102 37.0288 34.405 36.8077C34.3994 36.617 34.3655 36.4282 34.3045 36.2474C34.2529 36.0609 34.1449 35.8948 33.9954 35.772C33.8558 35.6654 33.684 35.6095 33.5084 35.6136C33.3642 35.6169 33.2221 35.6498 33.0911 35.7102C32.9324 35.7953 32.8072 35.9315 32.7355 36.0967C32.6253 36.3388 32.5749 36.6039 32.5887 36.8696C32.5739 37.1649 32.6658 37.4557 32.8476 37.6889C32.9241 37.7816 33.0204 37.8561 33.1293 37.9069C33.2383 37.9578 33.3573 37.9836 33.4775 37.9826V37.9826Z" fill="#86A945"/>
<path d="M35.2373 38.0292V37.9867C35.2406 37.9641 35.25 37.9427 35.2644 37.9249L35.446 37.8862L35.7011 37.8399C35.7106 37.836 35.7193 37.8302 35.7266 37.8229C35.7339 37.8156 35.7397 37.8069 35.7436 37.7974C35.7547 37.7192 35.7547 37.6398 35.7436 37.5616C35.7436 36.866 35.7436 36.4641 35.7436 36.3559C35.7482 36.28 35.7263 36.2049 35.6817 36.1433C35.6152 36.1022 35.5395 36.0783 35.4614 36.0738C35.4047 36.0677 35.3489 36.0547 35.2953 36.0351V35.9424C35.45 35.8853 35.5967 35.8087 35.732 35.7143C35.8405 35.6108 35.9284 35.4875 35.9909 35.3511H36.0952C36.0952 35.4554 36.0952 35.6834 36.0952 36.0351V36.0892C36.0952 36.0892 36.0952 36.1201 36.0952 36.1472C36.1728 36.0041 36.2719 35.8738 36.3889 35.7607L36.4585 35.6873C36.4826 35.6586 36.5098 35.6326 36.5397 35.61C36.6356 35.5439 36.7453 35.5003 36.8604 35.4825C36.9019 35.4811 36.9432 35.4882 36.9818 35.5035C37.0203 35.5188 37.0553 35.5419 37.0846 35.5714C37.1401 35.6327 37.1705 35.7127 37.1696 35.7955C37.1716 35.8254 37.167 35.8554 37.1564 35.8834C37.1457 35.9114 37.1291 35.9368 37.1078 35.9578C37.0831 35.9829 37.0536 36.0027 37.021 36.016C36.9885 36.0292 36.9536 36.0358 36.9184 36.0351C36.8506 36.028 36.7842 36.0111 36.7213 35.9849C36.6607 35.9588 36.5971 35.9406 36.5319 35.9308C36.4902 35.928 36.4486 35.9374 36.4121 35.9578C36.3277 36.0384 36.2571 36.1324 36.2035 36.2361C36.1445 36.3216 36.111 36.4221 36.1068 36.5259V37.036V37.6466C36.1064 37.6927 36.1143 37.7386 36.13 37.7819C36.1467 37.803 36.1678 37.8202 36.1919 37.8321C36.4121 37.8515 36.5435 37.8669 36.5783 37.8747H36.644C36.7068 37.8726 36.7691 37.8858 36.8256 37.9133C36.8348 37.9171 36.8426 37.9236 36.8481 37.9318C36.8536 37.9401 36.8566 37.9498 36.8566 37.9597C36.8566 37.9597 36.8566 37.9867 36.8295 38.0099H36.4894H35.9252H35.7552L35.2373 38.0292Z" fill="#86A945"/>
<path d="M37.4316 35.5948H37.5436H37.8914H38.1542H38.3668C38.469 35.5941 38.5711 35.6018 38.6721 35.618C38.6749 35.6346 38.6749 35.6516 38.6721 35.6682V35.6914C38.6084 35.7183 38.5402 35.7327 38.4711 35.7339C38.3757 35.7371 38.2822 35.7608 38.1967 35.8035V35.8382C38.1994 35.869 38.2072 35.899 38.2199 35.9271C38.2199 35.9542 38.2431 35.9928 38.2624 36.0392C38.305 36.1938 38.4054 36.4875 38.5562 36.9203C38.6644 37.2372 38.7648 37.5077 38.8576 37.7319C38.9156 37.6082 38.9774 37.4498 39.0508 37.2604L39.3136 36.53C39.3717 36.3742 39.4169 36.2139 39.4489 36.0508C39.4531 36.0006 39.4531 35.9502 39.4489 35.9001C39.4468 35.868 39.4331 35.8377 39.4102 35.8151C39.3702 35.7856 39.3239 35.7658 39.275 35.7571C39.195 35.7389 39.1162 35.7157 39.0392 35.6875C39.025 35.67 39.0169 35.6483 39.016 35.6257C39.0279 35.6143 39.0426 35.6063 39.0585 35.6025H40.0827C40.0921 35.607 40.1001 35.6141 40.1056 35.623C40.1111 35.632 40.1138 35.6423 40.1136 35.6527C40.1119 35.6736 40.1022 35.693 40.0865 35.7068H40.0247C39.9269 35.7144 39.8326 35.7463 39.7503 35.7996C39.7048 35.8386 39.6735 35.8916 39.6614 35.9503C39.6498 35.9886 39.6356 36.026 39.6189 36.0624L39.5764 36.1861C39.5571 36.244 39.53 36.3097 39.4991 36.387L39.4643 36.4759L38.9426 37.8517L38.5562 38.8874C38.533 38.9415 38.502 39.0033 38.4711 39.0806C38.4312 39.1641 38.3847 39.2442 38.332 39.3202C38.2863 39.3821 38.2316 39.4368 38.1697 39.4825L38.0151 39.5482C37.9817 39.5522 37.948 39.5522 37.9146 39.5482C37.8428 39.5546 37.7711 39.5339 37.7137 39.4903C37.6911 39.4692 37.6735 39.4433 37.6621 39.4146C37.6508 39.3858 37.6459 39.3549 37.648 39.3241C37.649 39.2884 37.6583 39.2535 37.675 39.222C37.6918 39.1905 37.7156 39.1633 37.7446 39.1425L37.8064 39.1193H37.8451C37.9575 39.1412 38.071 39.1567 38.1852 39.1656C38.224 39.1495 38.2575 39.1227 38.2818 39.0884C38.3871 38.9314 38.474 38.7628 38.5407 38.586C38.5976 38.4639 38.6342 38.3334 38.6489 38.1995C38.6397 38.0938 38.6123 37.9905 38.5677 37.8942L38.2277 36.9899C38.1813 36.8739 38.0383 36.4914 37.8064 35.8305C37.7936 35.796 37.7739 35.7644 37.7485 35.7378L37.5398 35.6605H37.4741C37.4393 35.6605 37.4238 35.6257 37.4238 35.5986L37.4316 35.5948Z" fill="#86A945"/>
</svg>
