<?xml version="1.0" encoding="utf-8"?>
<!-- Generator: Adobe Illustrator 23.0.5, SVG Export Plug-In . SVG Version: 6.00 Build 0)  -->
<svg version="1.1" id="圖層_1" xmlns="http://www.w3.org/2000/svg" xmlns:xlink="http://www.w3.org/1999/xlink" x="0px" y="0px"
	 viewBox="0 0 24 24" style="enable-background:new 0 0 24 24;" xml:space="preserve">
<style type="text/css">
	.st0{fill:none;}
	.st1{fill:#86A945;}
</style>
<rect class="st0" width="24" height="24"/>
<path class="st1" d="M12,22H5c-1.1,0-2-0.9-2-2L3,6c0-1.1,0.9-2,2-2h1V2h2v2h8V2h2v2h1c1.1,0,2,0.9,2,2v6h-2v-2H5v10h7V22z M22.1,17
	l0.7-0.7c0.4-0.4,0.4-1,0-1.4l-0.7-0.7c-0.4-0.4-1-0.4-1.4,0L20,14.9L22.1,17z M21.4,17.7L16.1,23H14v-2.1l5.3-5.3L21.4,17.7z"/>
</svg>
