<svg width="102" height="100" viewBox="0 0 102 100" fill="none" xmlns="http://www.w3.org/2000/svg">
<path d="M51 4.61432e-05C38.5436 -0.0155107 26.5299 4.6469 17.3112 13.0744C8.0926 21.5018 2.33298 33.0874 1.16011 45.5627C-0.0127634 58.0379 3.48558 70.5043 10.9702 80.521C18.4547 90.5376 29.3865 97.3831 41.6251 99.7171C41.6251 89.3116 41.6251 76.0453 41.6251 66.4886V65.4512H31.5001C29.9376 65.4512 29.3751 64.8853 29.3751 63.3449C29.3751 59.1638 29.3751 54.9513 29.3751 50.7702C29.3751 49.2927 29.9688 48.7269 31.4688 48.6954H41.6251V47.7838C41.6251 44.6401 41.6251 41.2764 41.6251 38.0384C41.6574 33.4206 43.3186 28.9643 46.3126 25.4637C49.0697 22.1753 52.9942 20.0999 57.2501 19.6794C61.1251 19.2707 65.0626 19.3965 68.9688 19.3022H71.4376C71.6845 19.2768 71.934 19.3077 72.1675 19.3924C72.401 19.4772 72.6125 19.6136 72.7866 19.7917C72.9606 19.9698 73.0926 20.1849 73.1728 20.4212C73.253 20.6575 73.2794 20.909 73.2501 21.1569C73.2501 25.1808 73.2501 29.2361 73.2501 33.2915C73.2501 34.5175 72.5938 35.0834 71.3438 35.1148C68.5626 35.1148 65.7813 35.1148 63.0313 35.1148C62.3097 35.0596 61.5875 35.214 60.9505 35.5595C60.3134 35.905 59.7884 36.4271 59.4376 37.0639C59.0412 37.7867 58.8266 38.5962 58.8126 39.4216C58.8126 42.4081 58.8126 45.426 58.8126 48.5382H70.5938C72.2188 48.5382 72.7813 49.1041 72.8125 50.7388C72.8125 54.8884 72.8125 59.0695 72.8125 63.3135C72.8125 64.8539 72.25 65.4197 70.7188 65.4197H58.75V100C71.2002 98.0526 82.4605 91.4484 90.2785 81.5084C98.0965 71.5685 101.896 59.0257 100.916 46.3891C99.9371 33.7524 94.2513 21.9536 84.9964 13.3526C75.7415 4.75172 63.5998 -0.0171125 51 4.61432e-05V4.61432e-05Z" fill="#545454"/>
</svg>
