<svg width="100" height="100" viewBox="0 0 100 100" fill="none" xmlns="http://www.w3.org/2000/svg">
<g clip-path="url(#clip0_783_13877)">
<path d="M50 0C40.111 0 30.444 2.93245 22.2215 8.42652C13.9991 13.9206 7.59043 21.7295 3.80605 30.8658C0.0216641 40.0021 -0.968502 50.0555 0.960758 59.7545C2.89002 69.4536 7.65206 78.3627 14.6447 85.3553C21.6373 92.348 30.5465 97.11 40.2455 99.0393C49.9446 100.969 59.9979 99.9783 69.1342 96.194C78.2705 92.4096 86.0794 86.001 91.5735 77.7785C97.0676 69.556 100 59.8891 100 50C100 36.7392 94.7322 24.0215 85.3554 14.6447C75.9785 5.26784 63.2608 0 50 0V0ZM77.125 68.75C74.4488 73.1476 70.6501 76.7536 66.1192 79.1975C61.5884 81.6414 56.4886 82.8352 51.3438 82.6562C46.1828 82.8064 41.0604 81.7236 36.4016 79.4977C31.7429 77.2717 27.6822 73.9668 24.5565 69.8573C21.4308 65.7477 19.3302 60.952 18.429 55.868C17.5279 50.7841 17.8522 45.5585 19.375 40.625C25.625 17.9062 54.0938 9.9375 71.8125 25L72.2188 25.375L63.1875 34.5625C60.846 32.4815 58.0204 31.0204 54.9688 30.3125C50.0632 29.2304 44.9295 30.0644 40.6188 32.6439C36.3081 35.2233 33.1465 39.353 31.7813 44.1875C30.3771 48.9386 30.7893 54.0421 32.9376 58.5063C35.086 62.9706 38.8172 66.4768 43.4063 68.3437C47.014 69.91 51.0136 70.3394 54.8716 69.5745C58.7296 68.8096 62.2627 66.8868 65 64.0625C67.0676 61.9165 68.4867 59.23 69.0938 56.3125H51.0625V43.75H81.4375C81.4375 44.7187 81.7813 45.6875 81.875 46.6875C82.8372 54.3674 81.1624 62.1464 77.125 68.75V68.75Z" fill="#545454"/>
</g>
<defs>
<clipPath id="clip0_783_13877">
<rect width="100" height="100" fill="white"/>
</clipPath>
</defs>
</svg>
