<svg width="100" height="100" viewBox="0 0 100 100" fill="none" xmlns="http://www.w3.org/2000/svg">
<path d="M50 39.9688C48.0147 39.9626 46.0722 40.5457 44.4185 41.6442C42.7647 42.7426 41.4741 44.3071 40.7101 46.1396C39.9461 47.972 39.7429 49.9899 40.1265 51.9378C40.51 53.8857 41.4629 55.6761 42.8645 57.0821C44.2662 58.4881 46.0535 59.4466 48.0002 59.8362C49.947 60.2258 51.9655 60.029 53.8003 59.2707C55.6351 58.5124 57.2036 57.2266 58.3072 55.5763C59.4109 53.926 60 51.9854 60 50C60 47.345 58.9474 44.7982 57.073 42.9179C55.1985 41.0376 52.655 39.9771 50 39.9688V39.9688Z" fill="#545454"/>
<path d="M73.8125 33.5C73.2104 31.0658 71.7158 28.9467 69.625 27.5625C67.9928 26.5077 66.1245 25.8742 64.1875 25.7187C62.4062 25.5625 60.5937 25.4687 58.7812 25.4375C55.875 25.4375 52.9375 25.4375 50.0312 25.4375C45.8125 25.4375 41.625 25.4375 37.5312 25.4375C35.9388 25.5153 34.3632 25.7989 32.8437 26.2812C30.5563 27.024 28.6213 28.5809 27.4062 30.6563C26.4502 32.3295 25.8941 34.2012 25.7812 36.125C25.7812 37.6875 25.5625 39.25 25.5312 40.8125C25.5312 48.0313 25.3437 55.25 25.5312 62.4687C25.5799 63.9545 25.8323 65.4266 26.2812 66.8437C26.9909 69.2481 28.5885 71.2926 30.75 72.5625C32.4166 73.503 34.2769 74.0482 36.1875 74.1562C37.75 74.3125 39.3125 74.4062 40.9062 74.4062C47.8437 74.4062 54.7812 74.4062 61.7187 74.4062C63.366 74.3813 65.0037 74.1504 66.5937 73.7187C68.9406 73.0906 70.9822 71.6371 72.3437 69.625C73.4169 67.9787 74.0516 66.0855 74.1875 64.125C74.375 62.3438 74.4687 60.5937 74.5 58.8125C74.5 52 74.6562 45.1563 74.5 38.3438C74.4556 36.7083 74.2249 35.0832 73.8125 33.5V33.5ZM50 65.4062C46.9441 65.4124 43.9551 64.5115 41.4116 62.8176C38.8681 61.1237 36.8846 58.713 35.7123 55.8909C34.54 53.0688 34.2317 49.9622 34.8263 46.9647C35.421 43.9672 36.8919 41.2137 39.0528 39.0528C41.2136 36.892 43.9672 35.4211 46.9647 34.8264C49.9622 34.2317 53.0687 34.5401 55.8908 35.7124C58.7129 36.8847 61.1236 38.8682 62.8175 41.4116C64.5115 43.9551 65.4124 46.9441 65.4062 50C65.4062 52.0232 65.0077 54.0265 64.2335 55.8957C63.4592 57.7649 62.3244 59.4633 60.8938 60.8939C59.4632 62.3245 57.7648 63.4593 55.8957 64.2335C54.0265 65.0078 52.0231 65.4062 50 65.4062V65.4062ZM66.0312 37.5C65.3116 37.5062 64.6065 37.298 64.0056 36.9021C63.4047 36.5062 62.9352 35.9404 62.657 35.2767C62.3788 34.6131 62.3044 33.8816 62.4432 33.1756C62.5821 32.4695 62.928 31.8207 63.4368 31.3119C63.9457 30.803 64.5944 30.4572 65.3005 30.3183C66.0066 30.1794 66.738 30.2538 67.4017 30.5321C68.0653 30.8103 68.6311 31.2797 69.0271 31.8806C69.423 32.4815 69.6311 33.1867 69.625 33.9063C69.6168 34.8568 69.2355 35.7662 68.5634 36.4384C67.8912 37.1106 66.9818 37.4918 66.0312 37.5Z" fill="#545454"/>
<path d="M50 0C40.111 0 30.444 2.93245 22.2215 8.42652C13.9991 13.9206 7.59043 21.7295 3.80605 30.8658C0.0216641 40.0021 -0.968502 50.0555 0.960758 59.7545C2.89002 69.4536 7.65206 78.3627 14.6447 85.3553C21.6373 92.348 30.5465 97.11 40.2455 99.0393C49.9446 100.969 59.9979 99.9783 69.1342 96.194C78.2705 92.4096 86.0794 86.001 91.5735 77.7785C97.0676 69.556 100 59.8891 100 50C100 36.7392 94.7322 24.0215 85.3554 14.6447C75.9785 5.26784 63.2608 0 50 0V0ZM80 58.1875C80 60.0937 80 62 79.75 63.875C79.5757 66.7972 78.708 69.6359 77.2188 72.1562C75.1165 75.5889 71.7496 78.058 67.8438 79.0312C65.8032 79.5691 63.7039 79.8525 61.5938 79.875C54.5313 80.1562 47.5 80.0625 40.4375 79.875C38.7188 79.875 36.9688 79.875 35.2188 79.5937C32.2336 79.3601 29.3594 78.359 26.875 76.6875C23.6982 74.4485 21.4699 71.106 20.625 67.3125C20.3136 65.7272 20.1567 64.1155 20.1563 62.5C19.8438 55.5312 19.9375 48.5625 20.1563 41.625C20.1563 39.7812 20.1563 37.9375 20.4063 36.0937C20.5727 33.0651 21.5084 30.129 23.125 27.5625C25.115 24.4792 28.1403 22.2074 31.6563 21.1562C33.4739 20.6094 35.3534 20.2944 37.25 20.2187C40.8125 20 44.4063 20 48 20H50H59.625C61.7154 20.015 63.8029 20.1612 65.875 20.4375C68.1457 20.7328 70.327 21.5101 72.2727 22.7174C74.2184 23.9247 75.8835 25.534 77.1563 27.4375C78.3694 29.3384 79.1877 31.4639 79.5625 33.6875C79.8543 35.3498 80.0214 37.0316 80.0625 38.7187C80.125 45.1875 80.0625 51.6875 80 58.1875Z" fill="#545454"/>
</svg>
