<svg xmlns="http://www.w3.org/2000/svg" viewBox="0 0 100 100"><defs><style>.cls-1{fill:#545454;}</style></defs><title>資產 5</title><g id="圖層_2" data-name="圖層 2"><g id="圖層_1-2" data-name="圖層 1"><path class="cls-1" d="M42.59,37H40a.71.71,0,0,0-.71.71V53.57a.7.7,0,0,0,.71.7h2.57a.7.7,0,0,0,.7-.7V37.66A.7.7,0,0,0,42.59,37Z"/><path class="cls-1" d="M36.41,50.29H29.46V37.66a.71.71,0,0,0-.71-.71H26.18a.71.71,0,0,0-.71.71V53.57a.7.7,0,0,0,.2.48h0a.73.73,0,0,0,.49.19H36.41a.71.71,0,0,0,.71-.71V51A.71.71,0,0,0,36.41,50.29Z"/><path class="cls-1" d="M60.21,37H57.65a.71.71,0,0,0-.71.71V47.1l-7.29-9.83-.06-.07h0s0,0-.05-.05h0l-.05,0h0s0,0,0,0l0,0h0l0,0H46.5a.71.71,0,0,0-.72.71v15.9a.71.71,0,0,0,.72.71h2.55a.71.71,0,0,0,.72-.71V44.13L57.07,54a.58.58,0,0,0,.18.17h0l0,0h.05l0,0h.08a.58.58,0,0,0,.19,0H60.2a.71.71,0,0,0,.72-.71V37.66A.71.71,0,0,0,60.21,37Z"/><path class="cls-1" d="M74.35,37H64.12a.72.72,0,0,0-.5.2h0a.75.75,0,0,0-.21.49V53.57a.67.67,0,0,0,.21.48v0h0a.76.76,0,0,0,.5.19H74.35a.7.7,0,0,0,.7-.71V51a.7.7,0,0,0-.7-.72h-7V47.6h7a.71.71,0,0,0,.71-.71V44.34a.71.71,0,0,0-.71-.72h-7V40.93h7a.71.71,0,0,0,.71-.71h0V37.67A.7.7,0,0,0,74.35,37Z"/><path class="cls-1" d="M50,0a50,50,0,1,0,50,50A50,50,0,0,0,50,0ZM78.68,63.06C71,71.88,53.9,82.61,50,84.26s-3.35-.9-3.18-1.89l0-.08.52-3.12a7.5,7.5,0,0,0-.12-3.3c-.41-1-2-1.55-3.21-1.81C26.48,71.75,13.5,59.48,13.5,44.84c0-16.33,16.38-29.62,36.5-29.62S86.5,28.51,86.5,44.84C86.5,51.38,84,57.27,78.68,63.06Z"/></g></g></svg>