<svg width="100" height="100" viewBox="0 0 100 100" fill="none" xmlns="http://www.w3.org/2000/svg">
<g clip-path="url(#clip0_783_13959)">
<path fill-rule="evenodd" clip-rule="evenodd" d="M49.0313 53.7187C48.0531 53.6931 47.0826 53.8975 46.1979 54.3154C45.3132 54.7333 44.5389 55.3532 43.9375 56.125C42.6202 57.9361 41.9489 60.137 42.0313 62.375C41.9158 64.6172 42.5903 66.8289 43.9375 68.625C44.5178 69.3768 45.2675 69.981 46.1255 70.3883C46.9835 70.7955 47.9256 70.9944 48.875 70.9687C49.8246 70.9984 50.7685 70.8112 51.6349 70.4213C52.5013 70.0314 53.2674 69.4491 53.875 68.7187C55.1813 66.9051 55.8316 64.701 55.7188 62.4687C55.8599 60.1452 55.2341 57.8395 53.9375 55.9062C53.3526 55.1778 52.6023 54.5993 51.749 54.2189C50.8958 53.8385 49.9641 53.667 49.0313 53.7187V53.7187Z" fill="#545454"/>
<path fill-rule="evenodd" clip-rule="evenodd" d="M75.875 53.625H73.5V62.0625H75.875C79 62.0625 80.75 60.625 80.75 57.7813C80.75 54.9375 79.125 53.625 75.875 53.625Z" fill="#545454"/>
<path fill-rule="evenodd" clip-rule="evenodd" d="M50 0C40.111 0 30.444 2.93245 22.2215 8.42652C13.9991 13.9206 7.59043 21.7295 3.80605 30.8658C0.0216641 40.0021 -0.968503 50.0555 0.960758 59.7545C2.89002 69.4536 7.65206 78.3627 14.6447 85.3553C21.6373 92.348 30.5465 97.11 40.2455 99.0393C49.9446 100.969 59.9979 99.9784 69.1342 96.194C78.2705 92.4096 86.0794 86.001 91.5735 77.7785C97.0676 69.5561 100 59.8891 100 50C100 36.7392 94.7322 24.0215 85.3554 14.6447C75.9785 5.26784 63.2608 0 50 0V0ZM50 16.875L69.3125 39.4063H30.6875L50 16.875ZM34.375 53.9063H26.625V76H20.375V53.9063H12.8438V48.9375H34.375V53.9063ZM58.4688 72.6563C57.2189 73.9512 55.7103 74.9684 54.0412 75.6414C52.372 76.3145 50.5798 76.6283 48.7813 76.5625C47.0427 76.6102 45.3129 76.2991 43.6999 75.6485C42.0869 74.9979 40.6253 74.0219 39.4063 72.7813C38.1382 71.4592 37.1498 69.8949 36.5001 68.1821C35.8504 66.4693 35.5528 64.643 35.625 62.8125C35.4609 59.001 36.7958 55.2768 39.3438 52.4375C40.6094 51.116 42.1417 50.0786 43.8388 49.3944C45.5359 48.7102 47.3592 48.3946 49.1875 48.4688C50.9313 48.4017 52.6694 48.707 54.286 49.3644C55.9026 50.0218 57.3604 51.0162 58.5625 52.2813C61.0167 55.0177 62.2963 58.6095 62.125 62.2813C62.2999 66.0605 60.9745 69.7558 58.4375 72.5625L58.4688 72.6563ZM84.375 64.1563C82.1667 65.9216 79.3855 66.8116 76.5625 66.6563H73.6563V76.0313H67.4063V48.9375H76.9375C83.75 48.9375 87.1563 51.8125 87.1563 57.5625C87.2175 58.7999 86.9993 60.0352 86.5178 61.1766C86.0363 62.3181 85.3039 63.3365 84.375 64.1563V64.1563Z" fill="#545454"/>
</g>
<defs>
<clipPath id="clip0_783_13959">
<rect width="100" height="100" fill="white"/>
</clipPath>
</defs>
</svg>
