<svg xmlns="http://www.w3.org/2000/svg" viewBox="0 0 40 40"><defs><style>.cls-1{fill:#fff;}.cls-2{fill:#545454;}</style></defs><title>資產 7</title><g id="圖層_2" data-name="圖層 2"><g id="圖層_1-2" data-name="圖層 1"><circle class="cls-1" cx="20" cy="20" r="20"/><path class="cls-2" d="M20,0a20.13,20.13,0,0,0-3.76,39.88c0-4.15,0-9.46,0-13.28v-.42h-4c-.62,0-.85-.22-.86-.84v-5c0-.59.25-.83.84-.83h4.06V19.1c0-1.3,0-2.6,0-3.89a7.83,7.83,0,0,1,1.87-5,6.55,6.55,0,0,1,4.36-2.3c1.55-.16,3.12-.11,4.69-.15h1a.68.68,0,0,1,.73.74c0,1.62,0,3.24,0,4.85,0,.5-.26.73-.76.74-1.11,0-2.22,0-3.33,0a1.52,1.52,0,0,0-1.44.77,2.44,2.44,0,0,0-.25,1c0,1.2,0,2.4,0,3.65h4.72c.65,0,.88.23.88.88,0,1.66,0,3.32,0,5,0,.62-.22.85-.84.85H23.1V40A20.13,20.13,0,0,0,20,0Z"/></g></g></svg>