<svg xmlns="http://www.w3.org/2000/svg" viewBox="0 0 40 40"><defs><style>.cls-1{fill:#fff;}.cls-2{fill:#545454;}</style></defs><title>資產 8</title><g id="圖層_2" data-name="圖層 2"><g id="圖層_1-2" data-name="圖層 1"><circle class="cls-1" cx="20" cy="20" r="20"/><path class="cls-2" d="M20,0A20,20,0,1,0,40,20,20,20,0,0,0,20,0ZM30.85,27.5a11.61,11.61,0,0,1-10.31,5.56A13,13,0,0,1,7.75,16.27c2.5-9.09,13.89-12.29,21-6.21l.15.15-3.6,3.67A7.56,7.56,0,0,0,22,12.19a7.87,7.87,0,0,0-9.27,5.54,8,8,0,0,0,4.65,9.67A7.74,7.74,0,0,0,26,25.69a6.3,6.3,0,0,0,1.64-3.11H20.42V17.46H32.57c.06.39.14.78.18,1.17A13.7,13.7,0,0,1,30.85,27.5Z"/></g></g></svg>