<svg xmlns="http://www.w3.org/2000/svg" viewBox="0 0 40 40"><defs><style>.cls-1{fill:#fff;}.cls-2{fill:#545454;}</style></defs><title>資產 9</title><g id="圖層_2" data-name="圖層 2"><g id="圖層_1-2" data-name="圖層 1"><circle class="cls-1" cx="20" cy="20" r="20"/><path class="cls-2" d="M20,16a4,4,0,1,0,4,4A4,4,0,0,0,20,16Z"/><path class="cls-2" d="M29.53,13.4A4.07,4.07,0,0,0,27.85,11a4.83,4.83,0,0,0-2.18-.73c-.71-.07-1.43-.11-2.15-.12-1.17,0-2.34,0-3.51,0-1.68,0-3.36,0-5,.06a7.07,7.07,0,0,0-1.88.33,4,4,0,0,0-2.18,1.76,5.05,5.05,0,0,0-.64,2.17c-.06.63-.09,1.26-.1,1.88,0,2.89-.08,5.78.05,8.66a7.05,7.05,0,0,0,.3,1.76,3.94,3.94,0,0,0,1.8,2.28,5.07,5.07,0,0,0,2.18.65c.62.05,1.25.09,1.88.1,2.77,0,5.55.06,8.33,0a8.49,8.49,0,0,0,1.94-.28A4,4,0,0,0,29,27.86a4.55,4.55,0,0,0,.74-2.2c.07-.7.11-1.42.12-2.13,0-2.72.06-5.45,0-8.18A9.23,9.23,0,0,0,29.53,13.4ZM20,26.16A6.17,6.17,0,1,1,26.16,20,6.16,6.16,0,0,1,20,26.16ZM26.41,15a1.45,1.45,0,1,1,1.44-1.45A1.45,1.45,0,0,1,26.41,15Z"/><path class="cls-2" d="M20,0A20,20,0,1,0,40,20,20,20,0,0,0,20,0ZM32,23.27c0,.76-.05,1.53-.1,2.28a7.23,7.23,0,0,1-1,3.32,6.15,6.15,0,0,1-3.71,2.75,10.63,10.63,0,0,1-2.45.33c-2.81.11-5.63.07-8.45,0-.7,0-1.39,0-2.09-.12a6.94,6.94,0,0,1-3.34-1.16A6.22,6.22,0,0,1,8.34,27a9.73,9.73,0,0,1-.28-2C7.94,22.2,8,19.42,8,16.63c0-.73,0-1.47.09-2.21A7.22,7.22,0,0,1,9.19,11,6.12,6.12,0,0,1,12.6,8.45a10,10,0,0,1,2.24-.38C16.27,8,17.7,8,19.14,8H20c1.28,0,2.57,0,3.85,0a16.58,16.58,0,0,1,2.44.17A6.39,6.39,0,0,1,30.8,11a6.67,6.67,0,0,1,1,2.47,12.33,12.33,0,0,1,.2,2C32.05,18.07,32,20.67,32,23.27Z"/></g></g></svg>