<svg xmlns="http://www.w3.org/2000/svg" viewBox="0 0 40 40"><defs><style>.cls-1{fill:#fff;}.cls-2{fill:#545454;}</style></defs><title>資產 8</title><g id="圖層_2" data-name="圖層 2"><g id="圖層_1-2" data-name="圖層 1"><circle class="cls-1" cx="20" cy="20" r="20"/><path class="cls-2" d="M17.35,15.32h-.63c-.31,0-.37,0-.37.36v5.26c0,.25.06.31.3.31h.65c.31,0,.36,0,.36-.35V15.63C17.66,15.39,17.59,15.32,17.35,15.32Z"/><path class="cls-2" d="M23.77,15.64c0-.25-.07-.32-.3-.32H22.8c-.28,0-.34.06-.34.35v2.9c0,.08,0,.15,0,.23l-.08,0a.75.75,0,0,0-.06-.13L21.8,18c-.62-.83-1.25-1.67-1.86-2.51a.39.39,0,0,0-.39-.19H19c-.35,0-.41.06-.41.42v5.09a1.21,1.21,0,0,0,0,.19.25.25,0,0,0,.28.23h.72c.27,0,.33-.06.33-.34V17.79l.06,0a1.34,1.34,0,0,0,.11.14l2.35,3.17a.35.35,0,0,0,.34.17c.24,0,.48,0,.72,0s.27-.07.28-.28V15.64Z"/><path class="cls-2" d="M15.19,20h-2c-.41,0-.4.05-.4-.41v-3.9c0-.27-.05-.32-.33-.32h-.63c-.27,0-.32,0-.32.32V21c0,.23.05.28.27.28h3.4c.21,0,.27-.06.28-.28v-.74C15.47,20,15.41,20,15.19,20Z"/><path class="cls-2" d="M28.38,20H26.25c-.14,0-.2,0-.19-.19s0-.36,0-.54,0-.29.3-.29h2.05c.24,0,.28-.05.28-.29s0-.42,0-.63,0-.36-.36-.36h-2c-.17,0-.25,0-.23-.23s0-.36,0-.54,0-.25.26-.25h2.09c.23,0,.28-.06.28-.29s0-.47,0-.7-.05-.32-.33-.32H25.07c-.27,0-.35.08-.35.36v5.25c0,.24.08.32.29.32h3.42c.2,0,.26-.06.26-.27s0-.48,0-.72S28.65,20,28.38,20Z"/><path class="cls-2" d="M20,0A20,20,0,1,0,40,20,20,20,0,0,0,20,0ZM32.64,22a13,13,0,0,1-1.91,2.79,25.73,25.73,0,0,1-3.66,3.34,47,47,0,0,1-6.5,4.32,5.87,5.87,0,0,1-1.07.44c-.53.15-.82-.15-.74-.69s.18-1.07.24-1.61a3.31,3.31,0,0,0,0-.77.7.7,0,0,0-.53-.63,6,6,0,0,0-1-.26,14.88,14.88,0,0,1-6-2.3A11.4,11.4,0,0,1,7.87,23a9.37,9.37,0,0,1-1.35-3.9,8.94,8.94,0,0,1,.29-3.41,10.33,10.33,0,0,1,3-4.71,14,14,0,0,1,6.7-3.44,13.83,13.83,0,0,1,2.48-.34l1.06,0A16.29,16.29,0,0,1,25.18,8a13.64,13.64,0,0,1,5,3,10.37,10.37,0,0,1,2.87,4.38,8.38,8.38,0,0,1,.42,2.06A8.76,8.76,0,0,1,32.64,22Z"/><path class="cls-2" d="M19.91,17.79v3.12c0,.28-.06.34-.33.34h-.72a.25.25,0,0,1-.28-.23,1.21,1.21,0,0,1,0-.19V15.74c0-.36.06-.42.41-.42h.56a.39.39,0,0,1,.39.19c.61.84,1.24,1.68,1.86,2.51l.5.69a.75.75,0,0,1,.06.13l.08,0c0-.08,0-.15,0-.23v-2.9c0-.29.06-.35.34-.35h.67c.23,0,.3.07.3.32V21c0,.21-.07.28-.28.28s-.48,0-.72,0a.35.35,0,0,1-.34-.17l-2.35-3.17a1.34,1.34,0,0,1-.11-.14Z"/><path class="cls-2" d="M24.72,18.3V15.68c0-.28.08-.36.35-.36h3.29c.28,0,.33,0,.33.32s0,.47,0,.7-.05.29-.28.29H26.32c-.26,0-.26,0-.26.25s0,.36,0,.54.06.23.23.23h2c.34,0,.36,0,.36.36s0,.42,0,.63,0,.29-.28.29H26.36c-.3,0-.3,0-.3.29s0,.36,0,.54.05.19.19.19h2.13c.27,0,.31,0,.31.31s0,.48,0,.72-.06.27-.26.27H25c-.21,0-.29-.08-.29-.32Z"/><path class="cls-2" d="M11.53,18.29V15.64c0-.28.05-.32.32-.32h.63c.28,0,.33,0,.33.32v3.9c0,.46,0,.41.4.41h2c.22,0,.28.06.29.28V21c0,.22-.07.28-.28.28H11.8c-.22,0-.27-.05-.27-.28Z"/><path class="cls-2" d="M17.66,18.29V20.9c0,.31-.05.35-.36.35h-.65c-.24,0-.3-.06-.3-.31V15.68c0-.31.06-.36.37-.36h.63c.24,0,.31.07.31.31Z"/></g></g></svg>