<svg xmlns="http://www.w3.org/2000/svg" viewBox="0 0 102.13 102.13"><defs><style>.cls-1{fill:#86a945;}.cls-2{fill:#fff;}</style></defs><title>資產 3</title><g id="圖層_2" data-name="圖層 2"><g id="圖層_1-2" data-name="圖層 1"><rect class="cls-1" width="102.13" height="102.13"/><path class="cls-2" d="M97.74,9.72l-.26,1.52a184.82,184.82,0,0,1-6.79,26.62,111.5,111.5,0,0,1-10,21Q60.09,92.57,35.76,92.54A37.19,37.19,0,0,1,22.05,89.9a30.94,30.94,0,0,1-11.07-7A22.77,22.77,0,0,1,4.4,66.15a21,21,0,0,1,7.78-16.6,28.74,28.74,0,0,1,19.27-6.66q18.44,0,40.07,15l-4.86,3.25A84.15,84.15,0,0,0,46.79,50.6a56.37,56.37,0,0,0-19.28-4.28,22.52,22.52,0,0,0-15,4.86A15.36,15.36,0,0,0,6.65,63.52a21.67,21.67,0,0,0,2.4,9.66,25.28,25.28,0,0,0,6.72,8.37,28.29,28.29,0,0,0,9.68,4.86A40.6,40.6,0,0,0,37.58,88.3q20,0,34.26-19.58A98.68,98.68,0,0,0,82,50.71,94,94,0,0,0,88.4,31.33l2.12-9.75,1.18-5.95c0-.39.19-1,.3-1.71a33.17,33.17,0,0,1-4,.3H83.94a13.55,13.55,0,0,0-3.85.53,8.54,8.54,0,0,0-4.63,3.11A8.18,8.18,0,0,0,73.71,23a10,10,0,0,0,1.37,5,30.58,30.58,0,0,0,5.1,5.91,9.35,9.35,0,0,1,3.59,6.25A12.35,12.35,0,0,1,81,47.65a7.38,7.38,0,0,1-5.52,3.66,4.6,4.6,0,0,1-3.64-1.61,6.06,6.06,0,0,1-1.4-4.28,8.51,8.51,0,0,1,0-1c1.89,2.68,3.77,4,5.64,4,2.74,0,4.13-1.43,4.13-4.28,0-1.72-1.44-3.88-4.28-6.43a14.74,14.74,0,0,1-5.17-11.16,17.14,17.14,0,0,1,17.14-17h7.75Z"/></g></g></svg>