<svg xmlns="http://www.w3.org/2000/svg" viewBox="0 0 138 110.72"><defs><style>.cls-1{fill:#fbc241;}.cls-2{fill:#86a945;}</style></defs><title>資產 1</title><g id="圖層_2" data-name="圖層 2"><g id="圖層_1-2" data-name="圖層 1"><path class="cls-1" d="M110.18,86.36s-2.85-.42-4.07-.44a8.17,8.17,0,0,0-3.81.68c-1.13.58-1.94.82-1.9,1.16.07.53,3.55.62,5.27.5a14.12,14.12,0,0,0,3.56-.65,6.33,6.33,0,0,0,.9-.46C110.38,87,110.83,86.49,110.18,86.36Z"/><path class="cls-1" d="M110.61,86.86s-.31,1-.39,1.24-.63,1.88-.88,2.47a21.74,21.74,0,0,0-1.09,4.09c-.09,1.1.28,2.62.52,2.67s1-.76,1.57-1.74a8.13,8.13,0,0,0,.91-4.15c-.08-1.66-.27-4-.35-4.34S110.67,86.67,110.61,86.86Z"/><path class="cls-1" d="M104.14,93.25a49.29,49.29,0,0,0-7-.4c-3.3.11-4.72.61-4.76.89s2.26,1.15,4.83,1.18a25.25,25.25,0,0,0,5.9-.75C103.66,94,105.13,93.37,104.14,93.25Z"/><path class="cls-1" d="M104.47,94a14.56,14.56,0,0,0-3.29,3.33,10.08,10.08,0,0,0-1.52,5.08c.06.56.27.93.8.54a15.21,15.21,0,0,0,3.4-4.52,11.91,11.91,0,0,0,1.27-4.2C105.12,93.88,104.83,93.82,104.47,94Z"/><path class="cls-1" d="M94.72,99.89a15,15,0,0,0-5.38-1.15c-3.38-.16-5,.18-5,.57s.52.75,2.31,1.36a13.26,13.26,0,0,0,5.78.36,7.9,7.9,0,0,0,2.07-.47C94.83,100.43,95.17,100.14,94.72,99.89Z"/><path class="cls-1" d="M94.91,100.49a34.52,34.52,0,0,0-3.45,2,7.17,7.17,0,0,0-2.43,2.8c-.2.48-.55,1.88-.25,2.07s1.35-.66,1.72-1.08a36.6,36.6,0,0,0,3.78-4.07C95.5,100.47,95.51,100.25,94.91,100.49Z"/><path class="cls-1" d="M81.69,103.93A16,16,0,0,0,76.5,102c-2.46-.3-4.5-.47-4.56-.23s.27,1.06,1.67,1.9,4.14,1,5.92,1S82.28,104.29,81.69,103.93Z"/><path class="cls-1" d="M83.33,104.37a6.92,6.92,0,0,0-3.68,1.39,18.1,18.1,0,0,0-3.24,3.18c-.47.65-.88,1.4-.65,1.69s1.51-.18,3-.82A10.87,10.87,0,0,0,83,106.12C84,104.59,84.05,104.3,83.33,104.37Z"/><path class="cls-1" d="M30.15,24.36s2.85.42,4.07.45A8.33,8.33,0,0,0,38,24.12c1.13-.57,1.94-.81,1.9-1.15-.07-.54-3.56-.62-5.27-.51a14.12,14.12,0,0,0-3.56.65,5.7,5.7,0,0,0-.9.47C30,23.77,29.5,24.24,30.15,24.36Z"/><path class="cls-1" d="M29.72,23.86s.31-.95.39-1.24.63-1.87.88-2.47a21.74,21.74,0,0,0,1.09-4.09,4.52,4.52,0,0,0-.52-2.67c-.23-.06-1,.76-1.57,1.74a8.16,8.16,0,0,0-.91,4.15c.08,1.67.27,4,.35,4.34S29.66,24.06,29.72,23.86Z"/><path class="cls-1" d="M36.19,17.48a48.4,48.4,0,0,0,7,.39c3.3-.1,4.72-.61,4.76-.89s-2.26-1.15-4.83-1.18a25.07,25.07,0,0,0-5.9.76C36.67,16.71,35.2,17.35,36.19,17.48Z"/><path class="cls-1" d="M35.86,16.68a14.32,14.32,0,0,0,3.29-3.33,10,10,0,0,0,1.52-5.07c-.06-.57-.27-.93-.8-.55a15.21,15.21,0,0,0-3.4,4.52,11.67,11.67,0,0,0-1.27,4.2C35.21,16.84,35.5,16.91,35.86,16.68Z"/><path class="cls-1" d="M45.61,10.83A15,15,0,0,0,51,12c3.38.17,5-.18,5-.57s-.53-.74-2.32-1.36a13.37,13.37,0,0,0-5.77-.36,9,9,0,0,0-2.07.47C45.5,10.29,45.16,10.58,45.61,10.83Z"/><path class="cls-1" d="M45.42,10.24a33.4,33.4,0,0,0,3.45-2,7,7,0,0,0,2.42-2.8c.21-.48.56-1.88.26-2.07s-1.35.66-1.73,1.08A38,38,0,0,0,46,8.55C44.83,10.26,44.82,10.47,45.42,10.24Z"/><path class="cls-1" d="M58.64,6.79a15.92,15.92,0,0,0,5.19,2c2.46.29,4.5.47,4.56.22s-.27-1.06-1.67-1.89-4.14-1-5.93-1S58.05,6.44,58.64,6.79Z"/><path class="cls-1" d="M57,6.36A7,7,0,0,0,60.68,5a17.76,17.76,0,0,0,3.24-3.18c.47-.65.87-1.39.65-1.69s-1.51.19-3,.83A10.92,10.92,0,0,0,57.31,4.6C56.29,6.13,56.27,6.43,57,6.36Z"/><path class="cls-2" d="M69.74,107.47H69v-.28c1.62,0,3.2-.11,4.71-.27.07,0,.14,0,.15.12v0a.26.26,0,0,1,0,.09.14.14,0,0,1-.13.15C72.29,107.42,71,107.47,69.74,107.47Z"/><path class="cls-2" d="M68.26,107.47A51.12,51.12,0,0,1,18.49,44.64l.26.06a51.47,51.47,0,0,0-1,10,50.52,50.52,0,0,0,9.12,29h0A50.74,50.74,0,0,0,69,107.18v.28h-.74ZM17.54,52.56c-.09,1.27-.14,2.53-.14,3.78A50.93,50.93,0,0,0,60,106.53,51,51,0,0,1,26.66,83.87,50.83,50.83,0,0,1,17.5,54.68C17.5,54,17.51,53.27,17.54,52.56Z"/><path class="cls-2" d="M111.76,85.36l-.07,0a.13.13,0,0,1,0-.19,50.85,50.85,0,0,0,3.36-52,51,51,0,0,1,4.75,21.52,51.57,51.57,0,0,1-1.36,11.7,50.65,50.65,0,0,1-7.47,18.13.15.15,0,0,1-.19,0,.14.14,0,0,1,0-.19,50.32,50.32,0,0,0,7.43-18,50.71,50.71,0,0,0-6.65-39l.23-.16a51.13,51.13,0,0,1,.17,58.16A.14.14,0,0,1,111.76,85.36Z"/><path class="cls-2" d="M110.82,84.57l-.08,0a.14.14,0,0,1,0-.19,50.23,50.23,0,0,0,5.21-10.22,51.14,51.14,0,0,1-5.47,10,.14.14,0,0,1-.19,0,.13.13,0,0,1,0-.19,50.62,50.62,0,0,0,7.92-17.62l.26.05a50.62,50.62,0,0,1-7.47,18.14A.14.14,0,0,1,110.82,84.57Z"/><path class="cls-2" d="M69,107.46A51.05,51.05,0,0,1,26.66,83.87l.23-.15a50.93,50.93,0,0,0,41.74,21.82c1.39,0,2.84-.07,4.42-.21a.15.15,0,0,1,.15.13.13.13,0,0,1-.12.14c-1.59.14-3,.21-4.45.21A51.16,51.16,0,0,1,31,89.22a50.7,50.7,0,0,0,38.05,18c1.62,0,3.2-.11,4.71-.27.07,0,.14,0,.15.12a.15.15,0,0,1-.13.15C72.22,107.34,70.63,107.43,69,107.46Z"/><path class="cls-2" d="M111.48,27.3A50.93,50.93,0,0,0,69.74,5.48h-1c-.33,0-.65,0-1,0h-.39a.13.13,0,0,1-.13-.14.15.15,0,0,1,.13-.14h2.41a51.17,51.17,0,0,1,37.73,16.64,50.61,50.61,0,0,0-38.84-18c-.63,0-1.28,0-1.89,0h-.08a.14.14,0,0,1,0-.27h.08c.62,0,1.26,0,1.9,0a51,51,0,0,1,43.08,23.6Z"/><path class="cls-2" d="M18.75,44.7l-.26-.05a50.51,50.51,0,0,1,8.9-20.19.14.14,0,0,1,.19,0,.14.14,0,0,1,0,.19A50.6,50.6,0,0,0,21,36.9a50.58,50.58,0,0,1,7-12,.14.14,0,0,1,.21.17A50.51,50.51,0,0,0,18.75,44.7Z"/><path class="cls-2" d="M26.66,83.88a51.17,51.17,0,0,1-8.17-39.23,50.55,50.55,0,0,1,9.45-19.73.14.14,0,0,1,.21.17,50.51,50.51,0,0,0-9.4,19.61,51.47,51.47,0,0,0-1,10,50.52,50.52,0,0,0,5.59,23.17,51.11,51.11,0,0,1,5.47-52.18.14.14,0,0,1,.19,0,.13.13,0,0,1,0,.19,50.85,50.85,0,0,0-2.15,57.89Z"/><path class="cls-2" d="M118.4,66.38l-.27-.06A50.84,50.84,0,0,0,69,5.5V5.23h.74a51.23,51.23,0,0,1,42,21.93,51,51,0,0,1,8.05,27.54A51.57,51.57,0,0,1,118.4,66.38ZM78.47,6.24a51.15,51.15,0,0,1,40.92,50.1c0,.7,0,1.4,0,2.1.09-1.25.14-2.51.14-3.76a50.67,50.67,0,0,0-8-27.38A51,51,0,0,0,78.47,6.24Z"/><path class="cls-2" d="M67.35,5.54a.13.13,0,0,1-.13-.1.14.14,0,0,1,0-.07.15.15,0,0,1,.13-.14H69V5.5l-1.64,0Z"/><path class="cls-2" d="M43.58,35.46l-.12.71A85.89,85.89,0,0,1,40.29,48.6a51.9,51.9,0,0,1-4.68,9.79Q26,74.14,14.64,74.13a17.33,17.33,0,0,1-6.4-1.23,14.49,14.49,0,0,1-5.17-3.29A10.63,10.63,0,0,1,0,61.81a9.78,9.78,0,0,1,3.63-7.75,13.42,13.42,0,0,1,9-3.11q8.61,0,18.71,7l-2.27,1.52a39.16,39.16,0,0,0-9.28-4.92,26.3,26.3,0,0,0-9-2,10.51,10.51,0,0,0-7,2.27,7.17,7.17,0,0,0-2.74,5.76,10.09,10.09,0,0,0,1.12,4.51A11.79,11.79,0,0,0,5.31,69a13.17,13.17,0,0,0,4.52,2.27,19,19,0,0,0,5.66.88q9.35,0,16-9.14a46.39,46.39,0,0,0,4.73-8.41,44,44,0,0,0,3-9.05L40.21,41l.55-2.78c0-.18.09-.45.14-.8a14.34,14.34,0,0,1-1.86.14l-1.9,0a6.31,6.31,0,0,0-1.8.25,4,4,0,0,0-2.16,1.45,3.82,3.82,0,0,0-.82,2.41A4.67,4.67,0,0,0,33,44a14.48,14.48,0,0,0,2.38,2.76,4.36,4.36,0,0,1,1.68,2.92,5.79,5.79,0,0,1-1.28,3.49,3.44,3.44,0,0,1-2.58,1.71,2.15,2.15,0,0,1-1.7-.75,2.84,2.84,0,0,1-.65-2,3.62,3.62,0,0,1,0-.47c.88,1.25,1.76,1.88,2.63,1.88,1.28,0,1.93-.67,1.93-2,0-.8-.67-1.81-2-3A6.89,6.89,0,0,1,31,43.33a8,8,0,0,1,8-7.93l1.88,0,1.74,0Z"/><path class="cls-2" d="M74.32,35.46l-1.84,5.11a10.25,10.25,0,0,1,5,2.74,6.62,6.62,0,0,1,1.57,4.6q0,5.45-4.73,10a20.39,20.39,0,0,1-7,4.36,24.34,24.34,0,0,1-8.63,1.55q-6.84,0-10.85-3.1a10,10,0,0,1-4-8.35A13.46,13.46,0,0,1,45.92,45a17.76,17.76,0,0,1,6.16-5.71,32.63,32.63,0,0,1,16.77-4.21A34.43,34.43,0,0,1,74.32,35.46Zm-2.2,6a21,21,0,0,1-6.6,9.06A15.21,15.21,0,0,1,56,53.75l-1.76,0a4.87,4.87,0,0,0-1,.1,6.6,6.6,0,0,0-1,.39c.11-.22.18-.35.22-.41l.54-1.1a2.47,2.47,0,0,1,2.41-1.45H58a21.41,21.41,0,0,0,3-.21,9.91,9.91,0,0,0,5.85-2.81,18.83,18.83,0,0,0,4.08-7,16.5,16.5,0,0,0-3.64-.45A12.54,12.54,0,0,0,60,42.83,9.78,9.78,0,0,0,56,48.62a2.88,2.88,0,0,1-.47-1.57q0-3,3.43-5.07a16.68,16.68,0,0,1,8.59-2,27.42,27.42,0,0,1,3.31.25l.43.06.94-3a47.83,47.83,0,0,0-6.54-.53q-9.64,0-14.27,4.21A15.21,15.21,0,0,0,46.61,52a9.53,9.53,0,0,0,3.31,7.73q3.8,3.16,10.14,3.17a16.7,16.7,0,0,0,11.58-4.2,13.46,13.46,0,0,0,4.67-10.42,8.19,8.19,0,0,0-1.16-4.41A4.92,4.92,0,0,0,72.12,41.49Z"/><path class="cls-2" d="M112.9,51.34q-2.81,4.32-4.7,7.91a2.86,2.86,0,0,0,0,.31l-.1,1.2-.1,1.07a4.19,4.19,0,0,0,0,.47l-.35.14a4.8,4.8,0,0,0-1.67,1,5.34,5.34,0,0,0-1,1.74,11,11,0,0,0-.94,4.29,3.44,3.44,0,0,0,.48,2,3.38,3.38,0,0,0,1.71,1.12l-1,2.86q-2.62-1-2.62-4.4,0-2.77,2.29-7.4a10.08,10.08,0,0,0,.89-2.89,28.73,28.73,0,0,0,.26-4.32l0-4.56v-.45a9,9,0,0,0-5,2.89,7.72,7.72,0,0,0-1.86,5.18,7.27,7.27,0,0,0,2.37,5.42,3.46,3.46,0,0,1-.64.08,2.52,2.52,0,0,1-2.15-1.21,5.23,5.23,0,0,1-.85-3.08,10.41,10.41,0,0,1,2.11-6.36,14.25,14.25,0,0,1,5.94-4.49A21.71,21.71,0,0,0,104.17,43a11.14,11.14,0,0,0-4-4.73,10.38,10.38,0,0,0-13,1.14,10.06,10.06,0,0,0-2.87,7.39,13,13,0,0,0,2.7,8,11.59,11.59,0,0,0,6.69,4.59v.39a10.29,10.29,0,0,1-7.83-3.23,11.47,11.47,0,0,1-3.07-8.26A12.77,12.77,0,0,1,86.57,39a12.46,12.46,0,0,1,9.24-3.75,11.11,11.11,0,0,1,8.7,3.57q3.19,3.57,3.81,10.39c.76-.07,1.44-.1,2-.1a29.19,29.19,0,0,1,2.93.2l.38-.57q5.13-7.64,9.48-10.92a15.13,15.13,0,0,1,9.31-3.28,6.2,6.2,0,0,1,4,1.23A4.17,4.17,0,0,1,138,39.1a8.37,8.37,0,0,1-1.38,4.37,14.93,14.93,0,0,1-3.79,4.07,22.24,22.24,0,0,1-13.72,4.25,33,33,0,0,1-3.33-.14l-2.35-.25Zm-.9-.08-.33,0c-1.14-.13-1.92-.19-2.33-.19q-.27,0-.9.06v1.09c0,1.81-.07,3.59-.2,5.33a5.35,5.35,0,0,0,.3-.49l1.6-2.66,1.61-2.69A4.31,4.31,0,0,0,112,51.26Zm2.14-1.9.58.06a58.81,58.81,0,0,0,6.42.39q9.14,0,13.28-4.73a6.69,6.69,0,0,0,1.86-4.47,3.93,3.93,0,0,0-1.47-3.17,5.73,5.73,0,0,0-3.8-1.23Q122.61,36.21,114.14,49.36Z"/><path class="cls-2" d="M41.48,75.77a.5.5,0,0,1,.05.15,1.12,1.12,0,0,1-.19.42,1.72,1.72,0,0,1-.55.58,1,1,0,0,1-.53.12,1,1,0,0,1-.86-.35,1.43,1.43,0,0,1-.25-.74l-.89.62a3.42,3.42,0,0,1-.71.35,3.88,3.88,0,0,1-1,.1.82.82,0,0,1-.88-.87,2.2,2.2,0,0,1,.68-1.31,4.9,4.9,0,0,1,1.83-1.25l1-.44c0-.17,0-.37,0-.57A2.33,2.33,0,0,0,39,71.21a1,1,0,0,0-.81-.36,1.5,1.5,0,0,0-1,.43,1.87,1.87,0,0,0-.45,1,1.57,1.57,0,0,1-.18.44,1.13,1.13,0,0,1-.55.23.54.54,0,0,1-.32-.11.15.15,0,0,1-.08-.12A2.85,2.85,0,0,1,36,71.8a2.92,2.92,0,0,1,1.12-1.09,2.58,2.58,0,0,1,1.17-.36,3.2,3.2,0,0,1,1,.12,1.43,1.43,0,0,1,.59.43,1.45,1.45,0,0,1,.31.68c0,.12,0,.54,0,1.25l0,1.27V75c0,.12,0,.23,0,.31s0,.27,0,.34a.61.61,0,0,0,.15.43.5.5,0,0,0,.36.16.62.62,0,0,0,.52-.31l.09-.12Zm-2.33-.23c0-.67.05-1.15.05-1.43s0-.33,0-.58a5.58,5.58,0,0,0-1.14.58,3.42,3.42,0,0,0-.95.9,1.25,1.25,0,0,0-.25.7.68.68,0,0,0,.21.51.72.72,0,0,0,.53.21,1.49,1.49,0,0,0,.6-.17A4.4,4.4,0,0,0,39.15,75.54Z"/><path class="cls-2" d="M48,75.4v.51a3.84,3.84,0,0,1-1.23.93,3.6,3.6,0,0,1-1.42.26,2.89,2.89,0,0,1-1.61-.47,3,3,0,0,1-1.1-1.31,4,4,0,0,1-.39-1.68,3.35,3.35,0,0,1,.47-1.7A3,3,0,0,1,44,70.75a4.25,4.25,0,0,1,1.93-.39,3.06,3.06,0,0,1,1.7.38.67.67,0,0,1,.33.57.57.57,0,0,1-.17.42.6.6,0,0,1-.43.17,1.3,1.3,0,0,1-.88-.49A2.19,2.19,0,0,0,45.9,71a1.18,1.18,0,0,0-.53-.12,1.46,1.46,0,0,0-1.18.58,3.26,3.26,0,0,0-.66,2.08,3.06,3.06,0,0,0,.67,2.06,2,2,0,0,0,1.56.76,3,3,0,0,0,1.11-.2A4.93,4.93,0,0,0,48,75.4Z"/><path class="cls-2" d="M54.78,75.4v.51a3.92,3.92,0,0,1-1.22.93,3.69,3.69,0,0,1-1.43.26,2.92,2.92,0,0,1-1.61-.47,3,3,0,0,1-1.1-1.31A4,4,0,0,1,49,73.64a3.35,3.35,0,0,1,.47-1.7,3,3,0,0,1,1.23-1.19,4.28,4.28,0,0,1,1.93-.39,3.06,3.06,0,0,1,1.7.38.67.67,0,0,1,.33.57.57.57,0,0,1-.17.42.58.58,0,0,1-.43.17,1.3,1.3,0,0,1-.88-.49,2,2,0,0,0-.53-.42,1.18,1.18,0,0,0-.53-.12,1.46,1.46,0,0,0-1.18.58,3.25,3.25,0,0,0-.65,2.08A3.05,3.05,0,0,0,51,75.59a2,2,0,0,0,1.57.76,2.92,2.92,0,0,0,1.1-.2A4.93,4.93,0,0,0,54.78,75.4Z"/><path class="cls-2" d="M61.52,72.65l-3.19,0h-.61l-.75,0a2,2,0,0,0-.07.33v.55a3,3,0,0,0,.31,1.19,2.37,2.37,0,0,0,.88,1.08,2.76,2.76,0,0,0,1.42.39,3,3,0,0,0,.72-.11,4,4,0,0,0,.77-.41l.57-.47,0,.32s0,.08,0,.12a3.56,3.56,0,0,1-.91.8,4.53,4.53,0,0,1-1.11.5,3.83,3.83,0,0,1-.9.07,2.94,2.94,0,0,1-1.11-.23A2.7,2.7,0,0,1,56.3,75.7a3.59,3.59,0,0,1-.46-1.88,3.94,3.94,0,0,1,.13-.9,4.62,4.62,0,0,1,.47-1.17,2.15,2.15,0,0,1,.57-.69,3.58,3.58,0,0,1,.83-.54,3.21,3.21,0,0,1,1.2-.21,2.45,2.45,0,0,1,1.22.27,2.48,2.48,0,0,1,1,.92,2.15,2.15,0,0,1,.31,1Zm-4.44-.29h.37c.27,0,1.08,0,2.42-.13a1,1,0,0,0,.39-.06.41.41,0,0,0,.15-.27,1.37,1.37,0,0,0-.16-.56,1.16,1.16,0,0,0-.49-.49,1.71,1.71,0,0,0-.77-.17,1.8,1.8,0,0,0-1.48.69A1.58,1.58,0,0,0,57.08,72.36Z"/><path class="cls-2" d="M63.15,74.83a6.6,6.6,0,0,0,.45,1,2.18,2.18,0,0,0,.72.7,1.78,1.78,0,0,0,.92.26,1.38,1.38,0,0,0,.9-.39.93.93,0,0,0,.32-.69,1.44,1.44,0,0,0-.38-1,3.51,3.51,0,0,0-1.42-.83,3.24,3.24,0,0,1-1.4-.84,1.59,1.59,0,0,1-.36-1,1.62,1.62,0,0,1,.29-1,1.8,1.8,0,0,1,.82-.63,2.52,2.52,0,0,1,.95-.21,5.23,5.23,0,0,1,1,.09,2.68,2.68,0,0,1,.77.27c0,.27.08.67.11,1.19v.26h-.28a2.31,2.31,0,0,0-.73-1,1.57,1.57,0,0,0-1-.39,1,1,0,0,0-.77.29,1,1,0,0,0-.3.76,1,1,0,0,0,.24.64,3.12,3.12,0,0,0,1.12.64,5.65,5.65,0,0,1,1.28.66,1.86,1.86,0,0,1,.6.74,2.3,2.3,0,0,1,.19.84,1.63,1.63,0,0,1-.37,1,1.91,1.91,0,0,1-.9.67,3,3,0,0,1-1,.2,4.58,4.58,0,0,1-1.86-.38.26.26,0,0,1-.09-.23s0-.13,0-.24c-.08-.71-.12-1.14-.12-1.27s0-.11,0-.13A.38.38,0,0,1,63.15,74.83Z"/><path class="cls-2" d="M69.1,74.83a6.6,6.6,0,0,0,.45,1,2.18,2.18,0,0,0,.72.7,1.75,1.75,0,0,0,.92.26,1.38,1.38,0,0,0,.9-.39.93.93,0,0,0,.32-.69,1.44,1.44,0,0,0-.38-1,3.51,3.51,0,0,0-1.42-.83,3.28,3.28,0,0,1-1.41-.84,1.64,1.64,0,0,1-.35-1,1.55,1.55,0,0,1,.29-1,1.82,1.82,0,0,1,.81-.63,2.61,2.61,0,0,1,1-.21,5.12,5.12,0,0,1,1,.09,2.75,2.75,0,0,1,.78.27,11.36,11.36,0,0,1,.1,1.19l0,.26h-.29a2.24,2.24,0,0,0-.73-1,1.52,1.52,0,0,0-1-.39,1.09,1.09,0,0,0-.78.29,1.06,1.06,0,0,0-.29.76,1,1,0,0,0,.24.64,3.12,3.12,0,0,0,1.12.64,5.88,5.88,0,0,1,1.28.66,1.75,1.75,0,0,1,.59.74,2.11,2.11,0,0,1,.19.84,1.68,1.68,0,0,1-.36,1,1.89,1.89,0,0,1-.91.67,2.9,2.9,0,0,1-1,.2,4.55,4.55,0,0,1-1.86-.38A.26.26,0,0,1,69,76.5s0-.13,0-.24c-.08-.71-.12-1.14-.12-1.27a.21.21,0,0,1,0-.13A.45.45,0,0,1,69.1,74.83Z"/><path class="cls-2" d="M74.48,73.65a3.41,3.41,0,0,1,.23-1.16,3.1,3.1,0,0,1,.69-1.1,3.13,3.13,0,0,1,1-.73,4.23,4.23,0,0,1,1.77-.34,3.32,3.32,0,0,1,2.48,1,3.37,3.37,0,0,1,1,2.46,3.05,3.05,0,0,1-1,2.27,3.67,3.67,0,0,1-2.65,1,3.53,3.53,0,0,1-1.86-.52A3.36,3.36,0,0,1,75,75.4,3.3,3.3,0,0,1,74.48,73.65ZM78,76.76a2.31,2.31,0,0,0,1.17-.33,2.28,2.28,0,0,0,.89-1.05,3.79,3.79,0,0,0,.34-1.66,5,5,0,0,0-.26-1.45,2.43,2.43,0,0,0-.8-1.23,2,2,0,0,0-1.26-.41,2.73,2.73,0,0,0-1.08.25,2.07,2.07,0,0,0-.92,1,4.29,4.29,0,0,0-.38,2A3.19,3.19,0,0,0,76.37,76,2.09,2.09,0,0,0,78,76.76Z"/><path class="cls-2" d="M82.55,76.88l0-.11a.33.33,0,0,1,.07-.16l.47-.1.66-.12a.2.2,0,0,0,.11-.11,2.16,2.16,0,0,0,0-.61q0-2.7,0-3.12A.85.85,0,0,0,83.7,72a1.22,1.22,0,0,0-.57-.18,1.82,1.82,0,0,1-.43-.1l0-.24a5,5,0,0,0,1.13-.59,3.06,3.06,0,0,0,.67-.94h.27c0,.27,0,.86,0,1.77v.14s0,.08,0,.15a4.12,4.12,0,0,1,.76-1l.18-.19a1.29,1.29,0,0,1,.21-.2,2,2,0,0,1,.83-.33.78.78,0,0,1,.58.23.85.85,0,0,1,.22.58.54.54,0,0,1-.16.42.67.67,0,0,1-.49.2,1.82,1.82,0,0,1-.51-.13,2,2,0,0,0-.49-.14.56.56,0,0,0-.31.07,2.73,2.73,0,0,0-.54.72,1.42,1.42,0,0,0-.25.75l0,1.32,0,1.58a1,1,0,0,0,.06.35.47.47,0,0,0,.16.13c.57.05.91.09,1,.11h.17a1,1,0,0,1,.47.1.13.13,0,0,1,.08.12s0,.07-.07.13l-.88,0H84.33l-.44,0Z"/><path class="cls-2" d="M88.23,70.58l.29,0h.9l.68,0,.55,0a4.79,4.79,0,0,1,.79.06.39.39,0,0,1,0,.13v.06a1.4,1.4,0,0,1-.52.11,1.72,1.72,0,0,0-.71.18v.09a.7.7,0,0,0,.06.23c0,.07.06.17.11.29.11.4.37,1.16.76,2.28q.42,1.23.78,2.1c.15-.32.31-.73.5-1.22L93.1,73a7.91,7.91,0,0,0,.35-1.24,2.3,2.3,0,0,0,0-.39.34.34,0,0,0-.1-.22A.84.84,0,0,0,93,71a5,5,0,0,1-.61-.18.27.27,0,0,1-.06-.16.24.24,0,0,1,.11-.06h2.65a.14.14,0,0,1,.08.13.21.21,0,0,1-.07.14l-.16,0a1.52,1.52,0,0,0-.71.24.7.7,0,0,0-.23.39,2.28,2.28,0,0,1-.11.29l-.11.32c-.05.15-.12.32-.2.52l-.09.23v0l-1.35,3.56-1,2.68c-.06.14-.14.3-.22.5a4.49,4.49,0,0,1-.36.62,2,2,0,0,1-.42.42l-.4.17a1.09,1.09,0,0,1-.26,0,.75.75,0,0,1-.52-.15.54.54,0,0,1-.17-.43.6.6,0,0,1,.25-.47l.16-.06.1,0a7.77,7.77,0,0,0,.88.12.58.58,0,0,0,.25-.2,6.36,6.36,0,0,0,.67-1.3,3.19,3.19,0,0,0,.28-1,2.37,2.37,0,0,0-.21-.79l-.88-2.34c-.12-.3-.49-1.29-1.09-3a.7.7,0,0,0-.15-.24l-.54-.2-.17,0c-.09,0-.13-.09-.13-.16Z"/></g></g></svg>